<svg width="16" height="16" viewBox="0 0 16 16" fill="none" xmlns="http://www.w3.org/2000/svg">
<path d="M9.87174 1.99968C10.0483 1.99979 10.2175 2.07024 10.3424 2.19499L13.8044 5.65788C13.9294 5.78293 13.9997 5.95274 13.9997 6.12956C13.9996 6.30634 13.9294 6.47626 13.8044 6.60124L12.0651 8.3405C11.9202 8.48532 11.7251 8.54632 11.5358 8.52995L10.485 11.3317C10.4158 11.5159 10.2692 11.6606 10.0837 11.7262L3.75553 13.9616C3.51358 14.0471 3.24378 13.9866 3.06217 13.8053L2.19499 12.9391C2.01334 12.7575 1.95218 12.487 2.03776 12.2448L4.27507 5.9157L4.30339 5.84831C4.37751 5.69477 4.50822 5.57388 4.6696 5.51335L7.4694 4.46257C7.46784 4.44406 7.46452 4.42562 7.46452 4.40691C7.46452 4.23011 7.53482 4.06025 7.65983 3.93523L9.40006 2.19499L9.50163 2.11198C9.61033 2.03953 9.73918 1.99967 9.87174 1.99968ZM5.42741 6.653L3.80241 11.2536L6.46061 8.59636C6.72086 8.33625 7.14266 8.33638 7.40299 8.59636C7.66334 8.85671 7.66334 9.27937 7.40299 9.53972L4.74382 12.1979L9.34538 10.5719L10.4391 7.65788L8.34147 5.56023L5.42741 6.653ZM9.07389 4.40593L11.5934 6.92546L12.3903 6.12859L9.87077 3.60905L9.07389 4.40593Z" fill="#2F2F2F"/>
</svg>
