<svg width="16" height="16" viewBox="0 0 16 16" fill="none" xmlns="http://www.w3.org/2000/svg">
<g clip-path="url(#clip0_36_322)">
<path d="M6.67333 4.57334C6.69811 4.39831 6.79139 4.24029 6.93266 4.13402C7.07394 4.02776 7.25163 3.98195 7.42667 4.00668C8.41067 4.14668 9.18667 4.92268 9.328 5.90534C9.34043 5.99202 9.33567 6.08029 9.31399 6.16512C9.2923 6.24995 9.25413 6.32968 9.20163 6.39976C9.14913 6.46984 9.08335 6.52889 9.00803 6.57354C8.93271 6.6182 8.84934 6.64758 8.76267 6.66001C8.67599 6.67244 8.58772 6.66768 8.50289 6.646C8.41806 6.62432 8.33833 6.58614 8.26825 6.53364C8.19817 6.48114 8.13912 6.41536 8.09447 6.34004C8.04981 6.26472 8.02043 6.18135 8.008 6.09468C7.98006 5.90091 7.89016 5.72139 7.75172 5.58295C7.61329 5.44452 7.43377 5.35461 7.24 5.32668C7.06497 5.3019 6.90695 5.20862 6.80068 5.06735C6.69441 4.92608 6.64861 4.74838 6.67333 4.57334ZM2.66667 5.81868C2.66667 3.31201 4.78667 1.33334 7.33333 1.33334C9.88 1.33334 12 3.31201 12 5.81868C12 7.46534 11.3867 8.98534 10.528 10.096C9.848 10.976 8.948 11.6827 8 11.916V12.5333C8 12.8267 8.24 13.0667 8.53333 13.0667H10.1333C10.6284 13.0667 11.1032 13.2633 11.4533 13.6134C11.8033 13.9635 12 14.4383 12 14.9333V15.3333C12 15.5102 11.9298 15.6797 11.8047 15.8047C11.6797 15.9298 11.5101 16 11.3333 16C11.1565 16 10.987 15.9298 10.8619 15.8047C10.7369 15.6797 10.6667 15.5102 10.6667 15.3333V14.9333C10.6667 14.7919 10.6105 14.6562 10.5105 14.5562C10.4104 14.4562 10.2748 14.4 10.1333 14.4H8.53333C8.03826 14.4 7.56347 14.2033 7.2134 13.8533C6.86333 13.5032 6.66667 13.0284 6.66667 12.5333V11.916C5.72 11.6827 4.81867 10.9787 4.13867 10.0987C3.19379 8.87103 2.6768 7.36781 2.66667 5.81868ZM7.33333 2.66668C5.46267 2.66668 4 4.10668 4 5.81868C4 7.14268 4.49733 8.38001 5.19467 9.28401C5.912 10.212 6.73867 10.6667 7.33333 10.6667C7.92667 10.6667 8.75467 10.212 9.472 9.28134C10.2364 8.28786 10.6558 7.07214 10.6667 5.81868C10.6667 4.10668 9.204 2.66668 7.33333 2.66668Z" fill="#2F2F2F"/>
</g>
<defs>
<clipPath id="clip0_36_322">
<rect width="16" height="16" fill="white"/>
</clipPath>
</defs>
</svg>
