<svg width="16" height="16" viewBox="0 0 16 16" fill="none" xmlns="http://www.w3.org/2000/svg">
<path d="M13.9885 10.1075L13.9 2.33799C13.8992 1.85397 13.7062 1.39009 13.3633 1.0484C13.0205 0.706711 12.556 0.515198 12.072 0.515994C11.588 0.516789 11.1241 0.709829 10.7824 1.05265C10.4407 1.39546 10.2492 1.85997 10.25 2.34399V4.75849C10.1904 4.73682 10.1294 4.71895 10.0675 4.70499C10.0475 4.70033 10.0273 4.69633 10.007 4.69299C9.89515 4.66959 9.78127 4.6572 9.667 4.65599H9.661C9.551 4.65599 9.4415 4.66649 9.3325 4.68749C9.3035 4.69299 9.276 4.70399 9.2475 4.71049C9.16683 4.72783 9.0875 4.75033 9.0095 4.77799C8.976 4.79049 8.945 4.80849 8.9125 4.82299C8.8415 4.85266 8.77267 4.88599 8.706 4.92299C8.6695 4.94449 8.637 4.97299 8.602 4.99499C8.543 5.03333 8.48633 5.07483 8.432 5.11949C8.3955 5.15099 8.3635 5.18749 8.3295 5.22199C8.28343 5.26685 8.23954 5.31391 8.198 5.36299L8.1245 5.30849C8.101 5.29149 8.087 5.28699 8.0685 5.27549C7.99656 5.23149 7.92191 5.19208 7.845 5.15749C7.815 5.14416 7.78433 5.13183 7.753 5.12049C7.67971 5.09364 7.60492 5.0711 7.529 5.05299C7.498 5.04499 7.46683 5.03766 7.4355 5.03099C7.32669 5.0103 7.21625 4.99943 7.1055 4.99849H7.1C6.98067 4.99849 6.86233 5.01016 6.745 5.03349C6.708 5.04049 6.674 5.05499 6.6375 5.06449C6.5614 5.08275 6.48644 5.10545 6.413 5.13249C6.3725 5.14899 6.3355 5.17199 6.296 5.19099C6.23279 5.22108 6.17121 5.25445 6.1115 5.29099C6.072 5.31649 6.037 5.34699 6 5.37549C5.94633 5.41383 5.89517 5.45483 5.8465 5.49849C5.811 5.53249 5.7805 5.57049 5.7465 5.60699C5.70376 5.65306 5.66322 5.70111 5.625 5.75099C5.604 5.78133 5.58383 5.81266 5.5645 5.84499C5.29124 5.70084 4.98695 5.6255 4.678 5.62549H4.6725C4.644 5.62549 4.617 5.63199 4.5885 5.63349C4.56 5.63499 4.5385 5.62549 4.5135 5.62549H4.509C4.05437 5.63755 3.62302 5.82917 3.30931 6.15843C2.99559 6.4877 2.82506 6.92781 2.835 7.38249V10.335C2.835 13.2195 5.2745 15.5 8.4175 15.5C9.13969 15.5226 9.85908 15.4001 10.5331 15.1397C11.2071 14.8794 11.822 14.4864 12.3415 13.9842C12.8609 13.482 13.2743 12.8806 13.5572 12.2157C13.8401 11.5509 13.9868 10.836 13.9885 10.1135V10.1075ZM10.5 9.95949C10.4388 9.92337 10.3706 9.9007 10.3 9.89299C10.2853 9.89333 10.2707 9.89249 10.256 9.89049C10.0736 9.84892 9.88709 9.82796 9.7 9.82799C9.50143 9.84711 9.30246 9.79578 9.13792 9.68298C8.97339 9.57018 8.85377 9.4031 8.8 9.21099C8.78684 9.15325 8.78013 9.09422 8.78 9.03499C8.781 8.98066 8.78683 8.92683 8.7975 8.87349C8.82742 8.70721 8.91189 8.55564 9.03757 8.44272C9.16325 8.32981 9.32297 8.262 9.4915 8.24999C9.95951 8.24731 10.4263 8.29763 10.883 8.39999L11.133 8.46049C11.6215 8.58199 12.048 8.87849 12.333 9.29349C12.7555 9.98449 12.886 11.2225 12.5925 11.747C12.5664 11.81 12.5215 11.8635 12.4638 11.8999C12.4062 11.9363 12.3386 11.954 12.2705 11.9505C12.0595 11.9505 11.9885 11.867 11.7645 11.3535C11.6675 11.0433 11.5041 10.758 11.2858 10.5172C11.0674 10.2765 10.7993 10.0862 10.5 9.95949ZM12.0545 1.49999C12.1671 1.4934 12.2799 1.51069 12.3853 1.55075C12.4908 1.59082 12.5866 1.65273 12.6665 1.73244C12.7463 1.81214 12.8084 1.90784 12.8487 2.01324C12.8889 2.11863 12.9064 2.23135 12.9 2.34399V2.34999L12.971 8.47849C12.579 8.03284 12.0691 7.70699 11.5 7.53849V6.41899C11.4936 6.12226 11.4072 5.83276 11.25 5.58099V2.34399C11.2458 2.23534 11.2634 2.12695 11.3018 2.02524C11.3403 1.92353 11.3987 1.83057 11.4738 1.75186C11.5488 1.67316 11.6388 1.61031 11.7386 1.56705C11.8383 1.52378 11.9458 1.50098 12.0545 1.49999ZM9.667 5.65599C9.72867 5.65666 9.78933 5.66483 9.849 5.68049C9.86667 5.68549 9.8845 5.69133 9.9025 5.69799C10.0032 5.72954 10.0971 5.77956 10.1795 5.84549C10.1975 5.85949 10.2153 5.87433 10.233 5.88999C10.2657 5.91999 10.2957 5.95233 10.323 5.98699C10.429 6.10699 10.492 6.25899 10.502 6.41899V7.31899C10.3273 7.29566 10.146 7.27899 9.958 7.26899C9.83011 7.26157 9.70209 7.25674 9.574 7.25449C9.549 7.25449 9.527 7.25199 9.502 7.25199H9.4465C9.2655 7.25199 9.0865 7.28399 8.916 7.34599V6.78049C8.91363 6.61956 8.88906 6.45972 8.843 6.30549C8.846 6.28649 8.8495 6.26783 8.8535 6.24949C8.86183 6.21949 8.87217 6.18983 8.8845 6.16049C8.89083 6.14383 8.89767 6.12716 8.905 6.11049C8.919 6.08316 8.93483 6.05699 8.9525 6.03199C8.96283 6.01533 8.97367 5.99866 8.985 5.98199C8.997 5.96549 9.0215 5.94149 9.0405 5.92149C9.0595 5.90149 9.072 5.88649 9.0905 5.87149C9.10917 5.85683 9.12833 5.84233 9.148 5.82799C9.169 5.81133 9.191 5.79566 9.214 5.78099C9.2335 5.76899 9.255 5.76049 9.2755 5.74999C9.296 5.73949 9.3255 5.72349 9.353 5.71299C9.378 5.70433 9.40333 5.69699 9.429 5.69099C9.454 5.68399 9.479 5.67499 9.5035 5.66999C9.5565 5.65999 9.60983 5.65483 9.6635 5.65449L9.667 5.65599ZM7.1045 5.99999C7.18183 6.00099 7.2575 6.01249 7.3315 6.03449C7.34717 6.03849 7.36267 6.04316 7.378 6.04849C7.44633 6.07183 7.51067 6.10316 7.571 6.14249L7.5875 6.15599C7.63917 6.19366 7.68567 6.23699 7.727 6.28599C7.738 6.29799 7.74833 6.31033 7.758 6.32299C7.78467 6.36199 7.808 6.40283 7.828 6.44549V8.61199C7.8245 8.62799 7.8255 8.64599 7.8225 8.66199C7.79565 8.78384 7.7819 8.90822 7.7815 9.03299C7.7815 9.09749 7.7945 9.15749 7.8005 9.21949C7.72911 9.34032 7.62736 9.44039 7.50536 9.50977C7.38336 9.57914 7.24535 9.61542 7.105 9.61499H7.1C6.99548 9.61725 6.89155 9.59881 6.79419 9.56075C6.69682 9.52269 6.60794 9.46575 6.53266 9.39322C6.45738 9.32068 6.39719 9.23397 6.35554 9.13808C6.3139 9.0422 6.29162 8.93902 6.29 8.83449V6.78049C6.291 6.74283 6.29483 6.70566 6.3015 6.66899C6.30417 6.64699 6.308 6.62533 6.313 6.60399C6.32 6.57633 6.3285 6.54916 6.3385 6.52249C6.3455 6.50249 6.353 6.48299 6.361 6.46399C6.37333 6.43866 6.387 6.41383 6.402 6.38949C6.41233 6.37116 6.4235 6.35316 6.4355 6.33549C6.45245 6.3136 6.47029 6.29241 6.489 6.27199L6.533 6.22199C6.55367 6.20366 6.57517 6.18699 6.5975 6.17199C6.61483 6.15766 6.63267 6.14399 6.651 6.13099C6.67567 6.11633 6.701 6.10299 6.727 6.09099C6.747 6.08099 6.7655 6.06949 6.7865 6.06099C6.81783 6.04974 6.8497 6.04006 6.882 6.03199C6.9005 6.02699 6.918 6.01999 6.937 6.01649C6.99033 6.00549 7.04467 5.99999 7.1 5.99999H7.1045ZM3.835 8.89999V7.38249C3.84402 7.18649 3.92593 7.00091 4.06468 6.86217C4.20342 6.72342 4.38899 6.64151 4.585 6.63249C4.75927 6.66324 4.91644 6.75625 5.02727 6.89421C5.1381 7.03217 5.19504 7.20569 5.1875 7.38249V8.89999C5.19759 9.09027 5.13185 9.2768 5.00467 9.41869C4.87749 9.56059 4.69925 9.64628 4.509 9.65699C4.31955 9.64514 4.14246 9.55895 4.01623 9.41718C3.89001 9.27542 3.82488 9.08954 3.835 8.89999ZM8.4175 14.5C5.826 14.5 3.9405 12.696 3.844 10.509C4.054 10.6055 4.2825 10.656 4.5135 10.656C4.75597 10.654 4.99494 10.5979 5.213 10.4919C5.43107 10.3859 5.62272 10.2325 5.774 10.043C5.94401 10.224 6.14927 10.3683 6.37714 10.467C6.60501 10.5657 6.85067 10.6168 7.099 10.617H7.1045C7.1575 10.617 7.209 10.61 7.2615 10.6055C6.91482 10.8425 6.59018 11.1103 6.2915 11.4055C6.19655 11.4983 6.14237 11.6251 6.14087 11.7578C6.13937 11.8906 6.19067 12.0185 6.2835 12.1135C6.37633 12.2084 6.50307 12.2626 6.63584 12.2641C6.76862 12.2656 6.89655 12.2143 6.9915 12.1215C7.43112 11.6572 7.96463 11.2919 8.5565 11.05C9.06021 10.8759 9.59702 10.8191 10.126 10.884C10.498 10.999 10.647 11.293 10.8495 11.7565C10.9221 12.0292 11.0624 12.2792 11.2574 12.4833C11.4524 12.6873 11.6958 12.8387 11.965 12.9235C11.5259 13.4308 10.9803 13.8351 10.3672 14.1076C9.75402 14.3801 9.08833 14.5141 8.4175 14.5Z" fill="#2F2F2F"/>
</svg>
