<svg width="16" height="16" viewBox="0 0 16 16" fill="none" xmlns="http://www.w3.org/2000/svg">
<path d="M10.6666 14.6847V12.7714C10.6916 12.4535 10.6487 12.1339 10.5406 11.8339C10.4326 11.5339 10.2619 11.2603 10.04 11.0314C12.1333 10.798 14.3333 10.0047 14.3333 6.36469C14.3331 5.43391 13.9751 4.53882 13.3333 3.86469C13.6372 3.05036 13.6157 2.15026 13.2733 1.35136C13.2733 1.35136 12.4866 1.11802 10.6666 2.33802C9.13856 1.92455 7.52805 1.92455 5.99997 2.33802C4.17997 1.11802 3.3933 1.35136 3.3933 1.35136C3.05089 2.15026 3.0294 3.05036 3.3333 3.86469C2.68672 4.54382 2.32832 5.447 2.3333 6.38469C2.3333 9.99802 4.5333 10.7914 6.62664 11.0514C6.4073 11.278 6.23815 11.5483 6.13018 11.8446C6.02221 12.141 5.97784 12.4567 5.99997 12.7714V14.6847" stroke="#2F2F2F" stroke-linecap="round" stroke-linejoin="round"/>
<path d="M5.99998 13.3513C3.99998 14 2.33331 13.3513 1.33331 11.3513" stroke="#2F2F2F" stroke-linecap="round" stroke-linejoin="round"/>
</svg>
