<svg width="16" height="16" viewBox="0 0 16 16" fill="none" xmlns="http://www.w3.org/2000/svg">
<path d="M8 1.5C7.115 1.5 6.5295 1.992 6.297 2.5C6.121 2.885 6.1425 3.1525 6.1405 3.375C5.75523 3.63896 5.39445 3.93699 5.0625 4.2655C4.3635 4.965 3.9805 5.9605 4 7.0155C4.01 7.5015 4.109 7.99117 4.297 8.4845C4.3905 8.7325 4.5625 9.162 4.719 9.6405C4.8755 10.119 5 10.6465 5 11H4.453C4.32039 11.0042 4.19487 11.0609 4.10406 11.1576C4.01325 11.2543 3.96457 11.3831 3.96875 11.5157C3.97293 11.6484 4.02961 11.7739 4.12633 11.8647C4.22306 11.9555 4.35189 12.0042 4.4845 12L3.594 13.203L3.5 13.328V14.5H12.5V13.328L12.406 13.203L11.5 12C11.68 12.002 11.8475 11.908 11.9395 11.752C11.9836 11.6753 12.0069 11.5885 12.0069 11.5C12.0069 11.4115 11.9836 11.3247 11.9395 11.248C11.8475 11.092 11.6795 10.998 11.5 11H11C11 9.869 10.297 8.832 9.6405 8.031C9.2655 7.5725 9.1425 7.492 8.8905 7.25C8.9805 7.1975 9.092 7.135 9.1565 7.0935C9.2365 7.043 9.2795 7.0115 9.2965 7C9.4375 7 9.4475 7.0235 9.594 7.1405C9.74 7.258 10.039 7.5 10.453 7.5C10.8165 7.5 11.082 7.2655 11.219 7.0935C11.344 6.9355 11.412 6.8165 11.422 6.797C11.467 6.7755 11.5645 6.744 11.6875 6.6565C11.8105 6.569 11.9705 6.373 12 6.1565C12.0295 5.94 11.961 5.75 11.875 5.5625C11.748 5.285 11.5115 4.967 11.1405 4.578C10.7695 4.1895 10.283 3.7775 9.6875 3.531C9.6425 3.5115 9.6795 3.541 9.656 3.516C9.633 3.49 9.5625 3.385 9.422 3.281C9.2385 3.1465 8.84 3.131 8.5 3.0935V1.5H8ZM7.5 2.6095V4H8C8.6815 4 8.832 4.082 8.828 4.078C8.826 4.076 8.83 4.086 8.9065 4.172C9.01933 4.29857 9.1577 4.3998 9.3125 4.469C9.7125 4.635 10.1135 4.959 10.422 5.281C10.711 5.582 10.9045 5.881 10.9375 5.9375C10.8575 5.9765 10.7735 6.004 10.672 6.125C10.535 6.291 10.4865 6.4065 10.4375 6.469C10.422 6.4885 10.424 6.494 10.422 6.5C10.379 6.494 10.3495 6.467 10.2185 6.3595C10.0545 6.2265 9.7285 6 9.297 6C8.9685 6 8.783 6.15 8.625 6.25C8.467 6.35 8.34 6.422 8.297 6.4375L8.281 6.453H8.266C8.174 6.492 8.016 6.5 8.016 6.5L7.5 6.4845V7.2815L7.672 7.4215C7.672 7.4215 8.2655 7.9455 8.8595 8.6715C9.453 9.399 10 10.3345 10 11H6C6 10.4395 5.8435 9.8515 5.672 9.328C5.5005 8.8045 5.297 8.348 5.219 8.1405C5.08135 7.77044 5.0073 7.37976 5 6.985C4.9845 6.182 5.2715 5.4635 5.7655 4.9695C6.092 4.643 6.578 4.2345 6.8435 4.0785L7.0935 3.938V3.6565C7.0935 3.4715 7.0935 3.1605 7.2035 2.9225C7.26133 2.78581 7.36664 2.67464 7.5 2.6095ZM5.75 12H10.25L11.375 13.5H4.625L5.75 12Z" fill="#2F2F2F"/>
</svg>
