<svg width="16" height="16" viewBox="0 0 16 16" fill="none" xmlns="http://www.w3.org/2000/svg">
<path fill-rule="evenodd" clip-rule="evenodd" d="M8 1.33333C8.17681 1.33333 8.34638 1.40357 8.4714 1.52859C8.59643 1.65361 8.66667 1.82318 8.66667 1.99999V2.64133L9.10267 2.41066C9.25897 2.328 9.4417 2.31082 9.61067 2.36289C9.77964 2.41496 9.92101 2.53203 10.0037 2.68833C10.0863 2.84463 10.1035 3.02736 10.0514 3.19633C9.99936 3.36531 9.8823 3.50667 9.726 3.58933L8.66667 4.14933V5.41733C9.14333 5.54 9.568 5.79066 9.90267 6.13133L11.0013 5.49733L10.9567 4.29999C10.95 4.12327 11.0139 3.95115 11.1342 3.8215C11.2544 3.69185 11.4213 3.61529 11.598 3.60866C11.7747 3.60203 11.9468 3.66588 12.0765 3.78615C12.2061 3.90642 12.2827 4.07327 12.2893 4.24999L12.3073 4.74333L12.8627 4.42266C12.9385 4.3782 13.0224 4.34917 13.1095 4.33726C13.1966 4.32535 13.2852 4.33079 13.3702 4.35326C13.4552 4.37573 13.5349 4.4148 13.6048 4.4682C13.6746 4.52161 13.7332 4.5883 13.7772 4.66444C13.8211 4.74058 13.8496 4.82467 13.8609 4.91185C13.8723 4.99904 13.8662 5.08761 13.8432 5.17246C13.8202 5.25731 13.7806 5.33676 13.7267 5.40624C13.6728 5.47573 13.6058 5.53387 13.5293 5.57733L12.974 5.89733L13.392 6.16C13.4662 6.20657 13.5304 6.2673 13.5811 6.3387C13.6318 6.41011 13.6679 6.4908 13.6874 6.57617C13.7069 6.66154 13.7094 6.74991 13.6947 6.83624C13.6801 6.92257 13.6486 7.00518 13.602 7.07933C13.5554 7.15348 13.4947 7.21773 13.4233 7.26842C13.3519 7.3191 13.2712 7.35523 13.1858 7.37473C13.1005 7.39423 13.0121 7.39672 12.9258 7.38207C12.8394 7.36742 12.7568 7.3359 12.6827 7.28933L11.668 6.65199L10.57 7.28533C10.6999 7.75269 10.6999 8.24664 10.57 8.71399L11.668 9.348L12.6827 8.71066C12.8324 8.6166 13.0134 8.58588 13.1858 8.62526C13.3582 8.66464 13.5079 8.7709 13.602 8.92066C13.6961 9.07042 13.7268 9.25141 13.6874 9.42382C13.648 9.59623 13.5418 9.74593 13.392 9.84L12.9747 10.102L13.5293 10.4227C13.6058 10.4661 13.6728 10.5243 13.7267 10.5937C13.7806 10.6632 13.8202 10.7427 13.8432 10.8275C13.8662 10.9124 13.8723 11.0009 13.8609 11.0881C13.8496 11.1753 13.8211 11.2594 13.7772 11.3355C13.7332 11.4117 13.6746 11.4784 13.6048 11.5318C13.5349 11.5852 13.4552 11.6243 13.3702 11.6467C13.2852 11.6692 13.1966 11.6746 13.1095 11.6627C13.0224 11.6508 12.9385 11.6218 12.8627 11.5773L12.308 11.2573L12.2893 11.75C12.2827 11.9267 12.2061 12.0936 12.0765 12.2138C11.9468 12.3341 11.7747 12.398 11.598 12.3913C11.4213 12.3847 11.2544 12.3081 11.1342 12.1785C11.0139 12.0488 10.95 11.8767 10.9567 11.7L11.0013 10.5027L9.90267 9.86866C9.568 10.2087 9.14267 10.46 8.66667 10.5827V11.8507L9.726 12.4107C9.8823 12.4933 9.99936 12.6347 10.0514 12.8037C10.1035 12.9726 10.0863 13.1554 10.0037 13.3117C9.92101 13.468 9.77964 13.585 9.61067 13.6371C9.4417 13.6892 9.25897 13.672 9.10267 13.5893L8.66667 13.3587V14C8.66667 14.1768 8.59643 14.3464 8.4714 14.4714C8.34638 14.5964 8.17681 14.6667 8 14.6667C7.82319 14.6667 7.65362 14.5964 7.5286 14.4714C7.40357 14.3464 7.33333 14.1768 7.33333 14V13.3587L6.89733 13.5893C6.81994 13.6303 6.73524 13.6555 6.64808 13.6637C6.56092 13.6719 6.47299 13.6629 6.38933 13.6371C6.30566 13.6113 6.22789 13.5693 6.16046 13.5135C6.09303 13.4576 6.03726 13.3891 5.99633 13.3117C5.9554 13.2343 5.93012 13.1496 5.92192 13.0624C5.91373 12.9752 5.92278 12.8873 5.94856 12.8037C5.97435 12.72 6.01636 12.6422 6.0722 12.5748C6.12804 12.5074 6.19661 12.4516 6.274 12.4107L7.33333 11.8507V10.5827C6.86403 10.4612 6.43672 10.2141 6.09733 9.868L4.99867 10.5027L5.04333 11.7C5.04657 11.7875 5.03255 11.8748 5.00205 11.9569C4.97156 12.0389 4.9252 12.1142 4.86561 12.1784C4.80603 12.2426 4.73439 12.2944 4.65478 12.3308C4.57518 12.3673 4.48917 12.3878 4.40167 12.391C4.31416 12.3942 4.22688 12.3802 4.14479 12.3497C4.06271 12.3192 3.98744 12.2729 3.92327 12.2133C3.85911 12.1537 3.80731 12.082 3.77083 12.0024C3.73435 11.9228 3.71391 11.8368 3.71067 11.7493L3.69267 11.2567L3.13733 11.5767C3.06144 11.6236 2.9769 11.6549 2.88871 11.6685C2.80052 11.6822 2.71049 11.678 2.62394 11.6562C2.5374 11.6345 2.45611 11.5955 2.38489 11.5418C2.31367 11.488 2.25397 11.4205 2.20933 11.3432C2.16469 11.2659 2.13601 11.1805 2.12501 11.0919C2.11401 11.0034 2.12089 10.9135 2.14527 10.8277C2.16964 10.7418 2.211 10.6617 2.26689 10.5922C2.32279 10.5226 2.39208 10.465 2.47067 10.4227L3.026 10.102L2.608 9.83933C2.46221 9.74351 2.35978 9.59436 2.32271 9.42388C2.28563 9.2534 2.31686 9.07518 2.4097 8.92747C2.50253 8.77976 2.64957 8.67432 2.81926 8.63379C2.98895 8.59325 3.16776 8.62085 3.31733 8.71066L4.332 9.348L5.43 8.71399C5.30018 8.24685 5.30018 7.75314 5.43 7.286L4.332 6.65266L3.31733 7.28933C3.16776 7.37914 2.98895 7.40674 2.81926 7.3662C2.64957 7.32567 2.50253 7.22023 2.4097 7.07252C2.31686 6.92481 2.28563 6.74659 2.32271 6.57611C2.35978 6.40563 2.46221 6.25648 2.608 6.16066L3.026 5.89799L2.47067 5.57799C2.31746 5.48959 2.20565 5.34394 2.15983 5.1731C2.114 5.00225 2.13793 4.8202 2.22633 4.667C2.31474 4.51379 2.46038 4.40198 2.63123 4.35615C2.80208 4.31033 2.98413 4.33426 3.13733 4.42266L3.69267 4.74333L3.71067 4.24999C3.7173 4.07327 3.79386 3.90642 3.92351 3.78615C3.98771 3.7266 4.063 3.68027 4.1451 3.64982C4.2272 3.61936 4.3145 3.60538 4.402 3.60866C4.4895 3.61194 4.5755 3.63243 4.65509 3.66895C4.73468 3.70547 4.80629 3.75731 4.86585 3.8215C4.9254 3.8857 4.97173 3.961 5.00218 4.0431C5.03263 4.1252 5.04662 4.21249 5.04333 4.29999L4.99867 5.49733L6.09733 6.132C6.43672 5.78586 6.86403 5.53878 7.33333 5.41733V4.14933L6.274 3.58933C6.1177 3.50667 6.00064 3.36531 5.94856 3.19633C5.89649 3.02736 5.91367 2.84463 5.99633 2.68833C6.07899 2.53203 6.22036 2.41496 6.38933 2.36289C6.5583 2.31082 6.74103 2.328 6.89733 2.41066L7.33333 2.64133V1.99999C7.33333 1.82318 7.40357 1.65361 7.5286 1.52859C7.65362 1.40357 7.82319 1.33333 8 1.33333ZM8 9.33333C8.35362 9.33333 8.69276 9.19285 8.94281 8.9428C9.19286 8.69276 9.33333 8.35362 9.33333 8C9.33333 7.64637 9.19286 7.30723 8.94281 7.05719C8.69276 6.80714 8.35362 6.66666 8 6.66666C7.64638 6.66666 7.30724 6.80714 7.05719 7.05719C6.80714 7.30723 6.66667 7.64637 6.66667 8C6.66667 8.35362 6.80714 8.69276 7.05719 8.9428C7.30724 9.19285 7.64638 9.33333 8 9.33333Z" fill="#2F2F2F"/>
</svg>
