<svg width="16" height="16" viewBox="0 0 16 16" fill="none" xmlns="http://www.w3.org/2000/svg">
<path d="M6.46623 5.73074C5.55406 5.73074 4.70874 6.01713 4.01465 6.50489V2.91234H2V14.0702H4.01465V13.5162C4.70874 14.0038 5.55406 14.2903 6.46623 14.2903C8.82643 14.2903 10.7397 12.3743 10.7397 10.0106C10.7397 7.64694 8.8263 5.73074 6.46623 5.73074ZM6.27437 12.4211C4.98757 12.4211 3.94442 11.341 3.94442 10.0088C3.94442 8.67654 4.98757 7.5965 6.27437 7.5965C7.56118 7.5965 8.60433 8.67654 8.60433 10.0088C8.60433 11.341 7.56118 12.4211 6.27437 12.4211ZM13.1941 2H14V15H13.1941V2Z" fill="#2F2F2F"/>
</svg>
