<svg xmlns="http://www.w3.org/2000/svg" style="display:none">
  <symbol id="icon-search" viewBox="0 0 16 16">
    <path d="M10.667 6.66699C10.667 6.1417 10.5633 5.62104 10.3623 5.13574C10.1613 4.65049 9.86652 4.20929 9.49512 3.83789C9.12372 3.46653 8.6825 3.17169 8.19727 2.9707C7.71214 2.7698 7.19207 2.66703 6.66699 2.66699C6.1417 2.66699 5.62104 2.76968 5.13574 2.9707C4.65044 3.17172 4.20932 3.46646 3.83789 3.83789C3.46646 4.20932 3.17172 4.65044 2.9707 5.13574C2.76968 5.62104 2.66699 6.1417 2.66699 6.66699C2.66703 7.19207 2.7698 7.71214 2.9707 8.19727C3.17169 8.6825 3.46653 9.12372 3.83789 9.49512C4.20929 9.86652 4.65049 10.1613 5.13574 10.3623C5.62104 10.5633 6.1417 10.667 6.66699 10.667C7.19211 10.6669 7.71211 10.5632 8.19727 10.3623C8.68257 10.1613 9.12368 9.86655 9.49512 9.49512C9.86655 9.12368 10.1613 8.68257 10.3623 8.19727C10.5632 7.71211 10.6669 7.19211 10.667 6.66699ZM12 6.66699C12 7.36726 11.8617 8.06104 11.5938 8.70801C11.4113 9.14835 11.1689 9.55959 10.8779 9.93457L14.4717 13.5283C14.732 13.7887 14.732 14.2113 14.4717 14.4717C14.2113 14.732 13.7887 14.732 13.5283 14.4717L9.93457 10.8779C9.55959 11.1689 9.14835 11.4113 8.70801 11.5938C8.06104 11.8617 7.36726 12 6.66699 12C5.96666 12 5.273 11.8617 4.62598 11.5938C3.97891 11.3257 3.39075 10.9327 2.89551 10.4375C2.40041 9.94236 2.00725 9.35489 1.73926 8.70801C1.47127 8.06104 1.33305 7.36726 1.33301 6.66699C1.33301 5.9667 1.4713 5.27297 1.73926 4.62598C2.00728 3.97891 2.40026 3.39075 2.89551 2.89551C3.39075 2.40026 3.97891 2.00728 4.62598 1.73926C5.27297 1.4713 5.9667 1.33301 6.66699 1.33301C7.36726 1.33305 8.06104 1.47127 8.70801 1.73926C9.35489 2.00725 9.94236 2.40041 10.4375 2.89551C10.9327 3.39075 11.3257 3.97891 11.5938 4.62598C11.8617 5.273 12 5.96666 12 6.66699Z" fill="currentColor"/>
  </symbol>

  <symbol id="icon-close" viewBox="0 0 32 32">
    <path fill-rule="evenodd" clip-rule="evenodd" d="M6.94015 6.94C7.2214 6.6591 7.60264 6.50132 8.00014 6.50132C8.39765 6.50132 8.77889 6.6591 9.06015 6.94L16.0001 13.88L22.9401 6.94C23.0775 6.79263 23.2431 6.67442 23.4271 6.59244C23.6111 6.51046 23.8097 6.46637 24.0111 6.46282C24.2125 6.45927 24.4126 6.49631 24.5993 6.57176C24.7861 6.6472 24.9558 6.75949 25.0982 6.90193C25.2407 7.04436 25.3529 7.21403 25.4284 7.40081C25.5038 7.58758 25.5409 7.78764 25.5373 7.98905C25.5338 8.19045 25.4897 8.38908 25.4077 8.57308C25.3257 8.75708 25.2075 8.92268 25.0601 9.06L18.1201 16L25.0601 22.94C25.2075 23.0773 25.3257 23.2429 25.4077 23.4269C25.4897 23.6109 25.5338 23.8096 25.5373 24.011C25.5409 24.2124 25.5038 24.4124 25.4284 24.5992C25.3529 24.786 25.2407 24.9556 25.0982 25.0981C24.9558 25.2405 24.7861 25.3528 24.5993 25.4282C24.4126 25.5037 24.2125 25.5407 24.0111 25.5372C23.8097 25.5336 23.6111 25.4895 23.4271 25.4076C23.2431 25.3256 23.0775 25.2074 22.9401 25.06L16.0001 18.12L9.06015 25.06C8.7758 25.325 8.3997 25.4692 8.0111 25.4624C7.6225 25.4555 7.25173 25.2981 6.9769 25.0232C6.70208 24.7484 6.54465 24.3776 6.5378 23.989C6.53094 23.6004 6.67518 23.2244 6.94015 22.94L13.8801 16L6.94015 9.06C6.65924 8.77875 6.50146 8.3975 6.50146 8C6.50146 7.6025 6.65924 7.22125 6.94015 6.94Z" fill="currentColor"/>
  </symbol>

</svg>
