<svg xmlns="http://www.w3.org/2000/svg" style="display:none">
  <symbol id="icon-search" viewBox="0 0 16 16">
    <path d="M10.667 6.66699C10.667 6.1417 10.5633 5.62104 10.3623 5.13574C10.1613 4.65049 9.86652 4.20929 9.49512 3.83789C9.12372 3.46653 8.6825 3.17169 8.19727 2.9707C7.71214 2.7698 7.19207 2.66703 6.66699 2.66699C6.1417 2.66699 5.62104 2.76968 5.13574 2.9707C4.65044 3.17172 4.20932 3.46646 3.83789 3.83789C3.46646 4.20932 3.17172 4.65044 2.9707 5.13574C2.76968 5.62104 2.66699 6.1417 2.66699 6.66699C2.66703 7.19207 2.7698 7.71214 2.9707 8.19727C3.17169 8.6825 3.46653 9.12372 3.83789 9.49512C4.20929 9.86652 4.65049 10.1613 5.13574 10.3623C5.62104 10.5633 6.1417 10.667 6.66699 10.667C7.19211 10.6669 7.71211 10.5632 8.19727 10.3623C8.68257 10.1613 9.12368 9.86655 9.49512 9.49512C9.86655 9.12368 10.1613 8.68257 10.3623 8.19727C10.5632 7.71211 10.6669 7.19211 10.667 6.66699ZM12 6.66699C12 7.36726 11.8617 8.06104 11.5938 8.70801C11.4113 9.14835 11.1689 9.55959 10.8779 9.93457L14.4717 13.5283C14.732 13.7887 14.732 14.2113 14.4717 14.4717C14.2113 14.732 13.7887 14.732 13.5283 14.4717L9.93457 10.8779C9.55959 11.1689 9.14835 11.4113 8.70801 11.5938C8.06104 11.8617 7.36726 12 6.66699 12C5.96666 12 5.273 11.8617 4.62598 11.5938C3.97891 11.3257 3.39075 10.9327 2.89551 10.4375C2.40041 9.94236 2.00725 9.35489 1.73926 8.70801C1.47127 8.06104 1.33305 7.36726 1.33301 6.66699C1.33301 5.9667 1.4713 5.27297 1.73926 4.62598C2.00728 3.97891 2.40026 3.39075 2.89551 2.89551C3.39075 2.40026 3.97891 2.00728 4.62598 1.73926C5.27297 1.4713 5.9667 1.33301 6.66699 1.33301C7.36726 1.33305 8.06104 1.47127 8.70801 1.73926C9.35489 2.00725 9.94236 2.40041 10.4375 2.89551C10.9327 3.39075 11.3257 3.97891 11.5938 4.62598C11.8617 5.273 12 5.96666 12 6.66699Z" fill="currentColor"/>
  </symbol>

  <symbol id="icon-close" viewBox="0 0 32 32">
    <path fill-rule="evenodd" clip-rule="evenodd" d="M6.94015 6.94C7.2214 6.6591 7.60264 6.50132 8.00014 6.50132C8.39765 6.50132 8.77889 6.6591 9.06015 6.94L16.0001 13.88L22.9401 6.94C23.0775 6.79263 23.2431 6.67442 23.4271 6.59244C23.6111 6.51046 23.8097 6.46637 24.0111 6.46282C24.2125 6.45927 24.4126 6.49631 24.5993 6.57176C24.7861 6.6472 24.9558 6.75949 25.0982 6.90193C25.2407 7.04436 25.3529 7.21403 25.4284 7.40081C25.5038 7.58758 25.5409 7.78764 25.5373 7.98905C25.5338 8.19045 25.4897 8.38908 25.4077 8.57308C25.3257 8.75708 25.2075 8.92268 25.0601 9.06L18.1201 16L25.0601 22.94C25.2075 23.0773 25.3257 23.2429 25.4077 23.4269C25.4897 23.6109 25.5338 23.8096 25.5373 24.011C25.5409 24.2124 25.5038 24.4124 25.4284 24.5992C25.3529 24.786 25.2407 24.9556 25.0982 25.0981C24.9558 25.2405 24.7861 25.3528 24.5993 25.4282C24.4126 25.5037 24.2125 25.5407 24.0111 25.5372C23.8097 25.5336 23.6111 25.4895 23.4271 25.4076C23.2431 25.3256 23.0775 25.2074 22.9401 25.06L16.0001 18.12L9.06015 25.06C8.7758 25.325 8.3997 25.4692 8.0111 25.4624C7.6225 25.4555 7.25173 25.2981 6.9769 25.0232C6.70208 24.7484 6.54465 24.3776 6.5378 23.989C6.53094 23.6004 6.67518 23.2244 6.94015 22.94L13.8801 16L6.94015 9.06C6.65924 8.77875 6.50146 8.3975 6.50146 8C6.50146 7.6025 6.65924 7.22125 6.94015 6.94Z" fill="currentColor"/>
  </symbol>

  <symbol id="icon-downArrow" viewBox="0 0 16 16">
    <path d="M8.66699 4V10.502L11.5537 7.9043L12.4463 8.89551L8 12.8965L3.55371 8.89551L4.44629 7.9043L7.33301 10.502V4H8.66699Z" fill="currentColor"/>
  </symbol>

  <symbol id="icon-snowFlake" viewBox="0 0 16 16">
    <path fill-rule="evenodd" clip-rule="evenodd" d="M8 1.33333C8.17681 1.33333 8.34638 1.40357 8.4714 1.52859C8.59643 1.65361 8.66667 1.82318 8.66667 1.99999V2.64133L9.10267 2.41066C9.25897 2.328 9.4417 2.31082 9.61067 2.36289C9.77964 2.41496 9.92101 2.53203 10.0037 2.68833C10.0863 2.84463 10.1035 3.02736 10.0514 3.19633C9.99936 3.36531 9.8823 3.50667 9.726 3.58933L8.66667 4.14933V5.41733C9.14333 5.54 9.568 5.79066 9.90267 6.13133L11.0013 5.49733L10.9567 4.29999C10.95 4.12327 11.0139 3.95115 11.1342 3.8215C11.2544 3.69185 11.4213 3.61529 11.598 3.60866C11.7747 3.60203 11.9468 3.66588 12.0765 3.78615C12.2061 3.90642 12.2827 4.07327 12.2893 4.24999L12.3073 4.74333L12.8627 4.42266C12.9385 4.3782 13.0224 4.34917 13.1095 4.33726C13.1966 4.32535 13.2852 4.33079 13.3702 4.35326C13.4552 4.37573 13.5349 4.4148 13.6048 4.4682C13.6746 4.52161 13.7332 4.5883 13.7772 4.66444C13.8211 4.74058 13.8496 4.82467 13.8609 4.91185C13.8723 4.99904 13.8662 5.08761 13.8432 5.17246C13.8202 5.25731 13.7806 5.33676 13.7267 5.40624C13.6728 5.47573 13.6058 5.53387 13.5293 5.57733L12.974 5.89733L13.392 6.16C13.4662 6.20657 13.5304 6.2673 13.5811 6.3387C13.6318 6.41011 13.6679 6.4908 13.6874 6.57617C13.7069 6.66154 13.7094 6.74991 13.6947 6.83624C13.6801 6.92257 13.6486 7.00518 13.602 7.07933C13.5554 7.15348 13.4947 7.21773 13.4233 7.26842C13.3519 7.3191 13.2712 7.35523 13.1858 7.37473C13.1005 7.39423 13.0121 7.39672 12.9258 7.38207C12.8394 7.36742 12.7568 7.3359 12.6827 7.28933L11.668 6.65199L10.57 7.28533C10.6999 7.75269 10.6999 8.24664 10.57 8.71399L11.668 9.348L12.6827 8.71066C12.8324 8.6166 13.0134 8.58588 13.1858 8.62526C13.3582 8.66464 13.5079 8.7709 13.602 8.92066C13.6961 9.07042 13.7268 9.25141 13.6874 9.42382C13.648 9.59623 13.5418 9.74593 13.392 9.84L12.9747 10.102L13.5293 10.4227C13.6058 10.4661 13.6728 10.5243 13.7267 10.5937C13.7806 10.6632 13.8202 10.7427 13.8432 10.8275C13.8662 10.9124 13.8723 11.0009 13.8609 11.0881C13.8496 11.1753 13.8211 11.2594 13.7772 11.3355C13.7332 11.4117 13.6746 11.4784 13.6048 11.5318C13.5349 11.5852 13.4552 11.6243 13.3702 11.6467C13.2852 11.6692 13.1966 11.6746 13.1095 11.6627C13.0224 11.6508 12.9385 11.6218 12.8627 11.5773L12.308 11.2573L12.2893 11.75C12.2827 11.9267 12.2061 12.0936 12.0765 12.2138C11.9468 12.3341 11.7747 12.398 11.598 12.3913C11.4213 12.3847 11.2544 12.3081 11.1342 12.1785C11.0139 12.0488 10.95 11.8767 10.9567 11.7L11.0013 10.5027L9.90267 9.86866C9.568 10.2087 9.14267 10.46 8.66667 10.5827V11.8507L9.726 12.4107C9.8823 12.4933 9.99936 12.6347 10.0514 12.8037C10.1035 12.9726 10.0863 13.1554 10.0037 13.3117C9.92101 13.468 9.77964 13.585 9.61067 13.6371C9.4417 13.6892 9.25897 13.672 9.10267 13.5893L8.66667 13.3587V14C8.66667 14.1768 8.59643 14.3464 8.4714 14.4714C8.34638 14.5964 8.17681 14.6667 8 14.6667C7.82319 14.6667 7.65362 14.5964 7.5286 14.4714C7.40357 14.3464 7.33333 14.1768 7.33333 14V13.3587L6.89733 13.5893C6.81994 13.6303 6.73524 13.6555 6.64808 13.6637C6.56092 13.6719 6.47299 13.6629 6.38933 13.6371C6.30566 13.6113 6.22789 13.5693 6.16046 13.5135C6.09303 13.4576 6.03726 13.3891 5.99633 13.3117C5.9554 13.2343 5.93012 13.1496 5.92192 13.0624C5.91373 12.9752 5.92278 12.8873 5.94856 12.8037C5.97435 12.72 6.01636 12.6422 6.0722 12.5748C6.12804 12.5074 6.19661 12.4516 6.274 12.4107L7.33333 11.8507V10.5827C6.86403 10.4612 6.43672 10.2141 6.09733 9.868L4.99867 10.5027L5.04333 11.7C5.04657 11.7875 5.03255 11.8748 5.00205 11.9569C4.97156 12.0389 4.9252 12.1142 4.86561 12.1784C4.80603 12.2426 4.73439 12.2944 4.65478 12.3308C4.57518 12.3673 4.48917 12.3878 4.40167 12.391C4.31416 12.3942 4.22688 12.3802 4.14479 12.3497C4.06271 12.3192 3.98744 12.2729 3.92327 12.2133C3.85911 12.1537 3.80731 12.082 3.77083 12.0024C3.73435 11.9228 3.71391 11.8368 3.71067 11.7493L3.69267 11.2567L3.13733 11.5767C3.06144 11.6236 2.9769 11.6549 2.88871 11.6685C2.80052 11.6822 2.71049 11.678 2.62394 11.6562C2.5374 11.6345 2.45611 11.5955 2.38489 11.5418C2.31367 11.488 2.25397 11.4205 2.20933 11.3432C2.16469 11.2659 2.13601 11.1805 2.12501 11.0919C2.11401 11.0034 2.12089 10.9135 2.14527 10.8277C2.16964 10.7418 2.211 10.6617 2.26689 10.5922C2.32279 10.5226 2.39208 10.465 2.47067 10.4227L3.026 10.102L2.608 9.83933C2.46221 9.74351 2.35978 9.59436 2.32271 9.42388C2.28563 9.2534 2.31686 9.07518 2.4097 8.92747C2.50253 8.77976 2.64957 8.67432 2.81926 8.63379C2.98895 8.59325 3.16776 8.62085 3.31733 8.71066L4.332 9.348L5.43 8.71399C5.30018 8.24685 5.30018 7.75314 5.43 7.286L4.332 6.65266L3.31733 7.28933C3.16776 7.37914 2.98895 7.40674 2.81926 7.3662C2.64957 7.32567 2.50253 7.22023 2.4097 7.07252C2.31686 6.92481 2.28563 6.74659 2.32271 6.57611C2.35978 6.40563 2.46221 6.25648 2.608 6.16066L3.026 5.89799L2.47067 5.57799C2.31746 5.48959 2.20565 5.34394 2.15983 5.1731C2.114 5.00225 2.13793 4.8202 2.22633 4.667C2.31474 4.51379 2.46038 4.40198 2.63123 4.35615C2.80208 4.31033 2.98413 4.33426 3.13733 4.42266L3.69267 4.74333L3.71067 4.24999C3.7173 4.07327 3.79386 3.90642 3.92351 3.78615C3.98771 3.7266 4.063 3.68027 4.1451 3.64982C4.2272 3.61936 4.3145 3.60538 4.402 3.60866C4.4895 3.61194 4.5755 3.63243 4.65509 3.66895C4.73468 3.70547 4.80629 3.75731 4.86585 3.8215C4.9254 3.8857 4.97173 3.961 5.00218 4.0431C5.03263 4.1252 5.04662 4.21249 5.04333 4.29999L4.99867 5.49733L6.09733 6.132C6.43672 5.78586 6.86403 5.53878 7.33333 5.41733V4.14933L6.274 3.58933C6.1177 3.50667 6.00064 3.36531 5.94856 3.19633C5.89649 3.02736 5.91367 2.84463 5.99633 2.68833C6.07899 2.53203 6.22036 2.41496 6.38933 2.36289C6.5583 2.31082 6.74103 2.328 6.89733 2.41066L7.33333 2.64133V1.99999C7.33333 1.82318 7.40357 1.65361 7.5286 1.52859C7.65362 1.40357 7.82319 1.33333 8 1.33333ZM8 9.33333C8.35362 9.33333 8.69276 9.19285 8.94281 8.9428C9.19286 8.69276 9.33333 8.35362 9.33333 8C9.33333 7.64637 9.19286 7.30723 8.94281 7.05719C8.69276 6.80714 8.35362 6.66666 8 6.66666C7.64638 6.66666 7.30724 6.80714 7.05719 7.05719C6.80714 7.30723 6.66667 7.64637 6.66667 8C6.66667 8.35362 6.80714 8.69276 7.05719 8.9428C7.30724 9.19285 7.64638 9.33333 8 9.33333Z" fill="currentColor"/>
  </symbol>

  <symbol id="icon-pointingUp" viewBox="0 0 16 16">
    <path d="M13.9885 10.1075L13.9 2.33799C13.8992 1.85397 13.7062 1.39009 13.3633 1.0484C13.0205 0.706711 12.556 0.515198 12.072 0.515994C11.588 0.516789 11.1241 0.709829 10.7824 1.05265C10.4407 1.39546 10.2492 1.85997 10.25 2.34399V4.75849C10.1904 4.73682 10.1294 4.71895 10.0675 4.70499C10.0475 4.70033 10.0273 4.69633 10.007 4.69299C9.89515 4.66959 9.78127 4.6572 9.667 4.65599H9.661C9.551 4.65599 9.4415 4.66649 9.3325 4.68749C9.3035 4.69299 9.276 4.70399 9.2475 4.71049C9.16683 4.72783 9.0875 4.75033 9.0095 4.77799C8.976 4.79049 8.945 4.80849 8.9125 4.82299C8.8415 4.85266 8.77267 4.88599 8.706 4.92299C8.6695 4.94449 8.637 4.97299 8.602 4.99499C8.543 5.03333 8.48633 5.07483 8.432 5.11949C8.3955 5.15099 8.3635 5.18749 8.3295 5.22199C8.28343 5.26685 8.23954 5.31391 8.198 5.36299L8.1245 5.30849C8.101 5.29149 8.087 5.28699 8.0685 5.27549C7.99656 5.23149 7.92191 5.19208 7.845 5.15749C7.815 5.14416 7.78433 5.13183 7.753 5.12049C7.67971 5.09364 7.60492 5.0711 7.529 5.05299C7.498 5.04499 7.46683 5.03766 7.4355 5.03099C7.32669 5.0103 7.21625 4.99943 7.1055 4.99849H7.1C6.98067 4.99849 6.86233 5.01016 6.745 5.03349C6.708 5.04049 6.674 5.05499 6.6375 5.06449C6.5614 5.08275 6.48644 5.10545 6.413 5.13249C6.3725 5.14899 6.3355 5.17199 6.296 5.19099C6.23279 5.22108 6.17121 5.25445 6.1115 5.29099C6.072 5.31649 6.037 5.34699 6 5.37549C5.94633 5.41383 5.89517 5.45483 5.8465 5.49849C5.811 5.53249 5.7805 5.57049 5.7465 5.60699C5.70376 5.65306 5.66322 5.70111 5.625 5.75099C5.604 5.78133 5.58383 5.81266 5.5645 5.84499C5.29124 5.70084 4.98695 5.6255 4.678 5.62549H4.6725C4.644 5.62549 4.617 5.63199 4.5885 5.63349C4.56 5.63499 4.5385 5.62549 4.5135 5.62549H4.509C4.05437 5.63755 3.62302 5.82917 3.30931 6.15843C2.99559 6.4877 2.82506 6.92781 2.835 7.38249V10.335C2.835 13.2195 5.2745 15.5 8.4175 15.5C9.13969 15.5226 9.85908 15.4001 10.5331 15.1397C11.2071 14.8794 11.822 14.4864 12.3415 13.9842C12.8609 13.482 13.2743 12.8806 13.5572 12.2157C13.8401 11.5509 13.9868 10.836 13.9885 10.1135V10.1075ZM10.5 9.95949C10.4388 9.92337 10.3706 9.9007 10.3 9.89299C10.2853 9.89333 10.2707 9.89249 10.256 9.89049C10.0736 9.84892 9.88709 9.82796 9.7 9.82799C9.50143 9.84711 9.30246 9.79578 9.13792 9.68298C8.97339 9.57018 8.85377 9.4031 8.8 9.21099C8.78684 9.15325 8.78013 9.09422 8.78 9.03499C8.781 8.98066 8.78683 8.92683 8.7975 8.87349C8.82742 8.70721 8.91189 8.55564 9.03757 8.44272C9.16325 8.32981 9.32297 8.262 9.4915 8.24999C9.95951 8.24731 10.4263 8.29763 10.883 8.39999L11.133 8.46049C11.6215 8.58199 12.048 8.87849 12.333 9.29349C12.7555 9.98449 12.886 11.2225 12.5925 11.747C12.5664 11.81 12.5215 11.8635 12.4638 11.8999C12.4062 11.9363 12.3386 11.954 12.2705 11.9505C12.0595 11.9505 11.9885 11.867 11.7645 11.3535C11.6675 11.0433 11.5041 10.758 11.2858 10.5172C11.0674 10.2765 10.7993 10.0862 10.5 9.95949ZM12.0545 1.49999C12.1671 1.4934 12.2799 1.51069 12.3853 1.55075C12.4908 1.59082 12.5866 1.65273 12.6665 1.73244C12.7463 1.81214 12.8084 1.90784 12.8487 2.01324C12.8889 2.11863 12.9064 2.23135 12.9 2.34399V2.34999L12.971 8.47849C12.579 8.03284 12.0691 7.70699 11.5 7.53849V6.41899C11.4936 6.12226 11.4072 5.83276 11.25 5.58099V2.34399C11.2458 2.23534 11.2634 2.12695 11.3018 2.02524C11.3403 1.92353 11.3987 1.83057 11.4738 1.75186C11.5488 1.67316 11.6388 1.61031 11.7386 1.56705C11.8383 1.52378 11.9458 1.50098 12.0545 1.49999ZM9.667 5.65599C9.72867 5.65666 9.78933 5.66483 9.849 5.68049C9.86667 5.68549 9.8845 5.69133 9.9025 5.69799C10.0032 5.72954 10.0971 5.77956 10.1795 5.84549C10.1975 5.85949 10.2153 5.87433 10.233 5.88999C10.2657 5.91999 10.2957 5.95233 10.323 5.98699C10.429 6.10699 10.492 6.25899 10.502 6.41899V7.31899C10.3273 7.29566 10.146 7.27899 9.958 7.26899C9.83011 7.26157 9.70209 7.25674 9.574 7.25449C9.549 7.25449 9.527 7.25199 9.502 7.25199H9.4465C9.2655 7.25199 9.0865 7.28399 8.916 7.34599V6.78049C8.91363 6.61956 8.88906 6.45972 8.843 6.30549C8.846 6.28649 8.8495 6.26783 8.8535 6.24949C8.86183 6.21949 8.87217 6.18983 8.8845 6.16049C8.89083 6.14383 8.89767 6.12716 8.905 6.11049C8.919 6.08316 8.93483 6.05699 8.9525 6.03199C8.96283 6.01533 8.97367 5.99866 8.985 5.98199C8.997 5.96549 9.0215 5.94149 9.0405 5.92149C9.0595 5.90149 9.072 5.88649 9.0905 5.87149C9.10917 5.85683 9.12833 5.84233 9.148 5.82799C9.169 5.81133 9.191 5.79566 9.214 5.78099C9.2335 5.76899 9.255 5.76049 9.2755 5.74999C9.296 5.73949 9.3255 5.72349 9.353 5.71299C9.378 5.70433 9.40333 5.69699 9.429 5.69099C9.454 5.68399 9.479 5.67499 9.5035 5.66999C9.5565 5.65999 9.60983 5.65483 9.6635 5.65449L9.667 5.65599ZM7.1045 5.99999C7.18183 6.00099 7.2575 6.01249 7.3315 6.03449C7.34717 6.03849 7.36267 6.04316 7.378 6.04849C7.44633 6.07183 7.51067 6.10316 7.571 6.14249L7.5875 6.15599C7.63917 6.19366 7.68567 6.23699 7.727 6.28599C7.738 6.29799 7.74833 6.31033 7.758 6.32299C7.78467 6.36199 7.808 6.40283 7.828 6.44549V8.61199C7.8245 8.62799 7.8255 8.64599 7.8225 8.66199C7.79565 8.78384 7.7819 8.90822 7.7815 9.03299C7.7815 9.09749 7.7945 9.15749 7.8005 9.21949C7.72911 9.34032 7.62736 9.44039 7.50536 9.50977C7.38336 9.57914 7.24535 9.61542 7.105 9.61499H7.1C6.99548 9.61725 6.89155 9.59881 6.79419 9.56075C6.69682 9.52269 6.60794 9.46575 6.53266 9.39322C6.45738 9.32068 6.39719 9.23397 6.35554 9.13808C6.3139 9.0422 6.29162 8.93902 6.29 8.83449V6.78049C6.291 6.74283 6.29483 6.70566 6.3015 6.66899C6.30417 6.64699 6.308 6.62533 6.313 6.60399C6.32 6.57633 6.3285 6.54916 6.3385 6.52249C6.3455 6.50249 6.353 6.48299 6.361 6.46399C6.37333 6.43866 6.387 6.41383 6.402 6.38949C6.41233 6.37116 6.4235 6.35316 6.4355 6.33549C6.45245 6.3136 6.47029 6.29241 6.489 6.27199L6.533 6.22199C6.55367 6.20366 6.57517 6.18699 6.5975 6.17199C6.61483 6.15766 6.63267 6.14399 6.651 6.13099C6.67567 6.11633 6.701 6.10299 6.727 6.09099C6.747 6.08099 6.7655 6.06949 6.7865 6.06099C6.81783 6.04974 6.8497 6.04006 6.882 6.03199C6.9005 6.02699 6.918 6.01999 6.937 6.01649C6.99033 6.00549 7.04467 5.99999 7.1 5.99999H7.1045ZM3.835 8.89999V7.38249C3.84402 7.18649 3.92593 7.00091 4.06468 6.86217C4.20342 6.72342 4.38899 6.64151 4.585 6.63249C4.75927 6.66324 4.91644 6.75625 5.02727 6.89421C5.1381 7.03217 5.19504 7.20569 5.1875 7.38249V8.89999C5.19759 9.09027 5.13185 9.2768 5.00467 9.41869C4.87749 9.56059 4.69925 9.64628 4.509 9.65699C4.31955 9.64514 4.14246 9.55895 4.01623 9.41718C3.89001 9.27542 3.82488 9.08954 3.835 8.89999ZM8.4175 14.5C5.826 14.5 3.9405 12.696 3.844 10.509C4.054 10.6055 4.2825 10.656 4.5135 10.656C4.75597 10.654 4.99494 10.5979 5.213 10.4919C5.43107 10.3859 5.62272 10.2325 5.774 10.043C5.94401 10.224 6.14927 10.3683 6.37714 10.467C6.60501 10.5657 6.85067 10.6168 7.099 10.617H7.1045C7.1575 10.617 7.209 10.61 7.2615 10.6055C6.91482 10.8425 6.59018 11.1103 6.2915 11.4055C6.19655 11.4983 6.14237 11.6251 6.14087 11.7578C6.13937 11.8906 6.19067 12.0185 6.2835 12.1135C6.37633 12.2084 6.50307 12.2626 6.63584 12.2641C6.76862 12.2656 6.89655 12.2143 6.9915 12.1215C7.43112 11.6572 7.96463 11.2919 8.5565 11.05C9.06021 10.8759 9.59702 10.8191 10.126 10.884C10.498 10.999 10.647 11.293 10.8495 11.7565C10.9221 12.0292 11.0624 12.2792 11.2574 12.4833C11.4524 12.6873 11.6958 12.8387 11.965 12.9235C11.5259 13.4308 10.9803 13.8351 10.3672 14.1076C9.75402 14.3801 9.08833 14.5141 8.4175 14.5Z" fill="currentColor"/>
  </symbol>

  <symbol id="icon-penNib" viewBox="0 0 16 16">
    <path d="M9.87174 1.99968C10.0483 1.99979 10.2175 2.07024 10.3424 2.19499L13.8044 5.65788C13.9294 5.78293 13.9997 5.95274 13.9997 6.12956C13.9996 6.30634 13.9294 6.47626 13.8044 6.60124L12.0651 8.3405C11.9202 8.48532 11.7251 8.54632 11.5358 8.52995L10.485 11.3317C10.4158 11.5159 10.2692 11.6606 10.0837 11.7262L3.75553 13.9616C3.51358 14.0471 3.24378 13.9866 3.06217 13.8053L2.19499 12.9391C2.01334 12.7575 1.95218 12.487 2.03776 12.2448L4.27507 5.9157L4.30339 5.84831C4.37751 5.69477 4.50822 5.57388 4.6696 5.51335L7.4694 4.46257C7.46784 4.44406 7.46452 4.42562 7.46452 4.40691C7.46452 4.23011 7.53482 4.06025 7.65983 3.93523L9.40006 2.19499L9.50163 2.11198C9.61033 2.03953 9.73918 1.99967 9.87174 1.99968ZM5.42741 6.653L3.80241 11.2536L6.46061 8.59636C6.72086 8.33625 7.14266 8.33638 7.40299 8.59636C7.66334 8.85671 7.66334 9.27937 7.40299 9.53972L4.74382 12.1979L9.34538 10.5719L10.4391 7.65788L8.34147 5.56023L5.42741 6.653ZM9.07389 4.40593L11.5934 6.92546L12.3903 6.12859L9.87077 3.60905L9.07389 4.40593Z" fill="currentColor"/>
  </symbol>

  <symbol id="icon-sun" viewBox="0 0 16 16">
    <path d="M8 12.6667C8.16329 12.6667 8.32089 12.7266 8.44291 12.8352C8.56494 12.9437 8.64289 13.0932 8.662 13.2553L8.66667 13.3333V14C8.66648 14.1699 8.60141 14.3334 8.48477 14.4569C8.36812 14.5805 8.2087 14.6548 8.03907 14.6648C7.86944 14.6747 7.70241 14.6196 7.57211 14.5105C7.44181 14.4014 7.35807 14.2467 7.338 14.078L7.33333 14V13.3333C7.33333 13.1565 7.40357 12.987 7.5286 12.8619C7.65362 12.7369 7.82319 12.6667 8 12.6667ZM12.2087 11.2733L12.2713 11.3287L12.738 11.7953C12.8576 11.9153 12.927 12.0763 12.9322 12.2456C12.9373 12.4149 12.8779 12.5798 12.7658 12.7069C12.6538 12.8339 12.4976 12.9135 12.329 12.9296C12.1604 12.9457 11.992 12.897 11.858 12.7933L11.7953 12.738L11.3287 12.2713C11.2136 12.1565 11.1445 12.0036 11.1343 11.8413C11.1241 11.6791 11.1735 11.5187 11.2733 11.3904C11.3731 11.2621 11.5163 11.1746 11.676 11.1444C11.8357 11.1143 12.001 11.1435 12.1407 11.2267L12.2087 11.2733ZM4.67133 11.3287C4.78612 11.4435 4.85507 11.5962 4.86526 11.7582C4.87545 11.9202 4.82617 12.0804 4.72667 12.2087L4.67133 12.2713L4.20467 12.738C4.08469 12.8576 3.92371 12.927 3.75441 12.9322C3.58511 12.9373 3.42019 12.8779 3.29315 12.7658C3.1661 12.6538 3.08646 12.4976 3.0704 12.329C3.05434 12.1604 3.10306 11.992 3.20667 11.858L3.262 11.7953L3.72867 11.3287C3.85369 11.2037 4.02322 11.1335 4.2 11.1335C4.37678 11.1335 4.54631 11.2037 4.67133 11.3287ZM2.66667 7.33334C2.83659 7.33353 3.00002 7.3986 3.12358 7.51524C3.24714 7.63189 3.32149 7.79131 3.33145 7.96094C3.34141 8.13057 3.28622 8.2976 3.17716 8.4279C3.0681 8.5582 2.9134 8.64194 2.74467 8.66201L2.66667 8.66668H2C1.83008 8.66649 1.66665 8.60142 1.54309 8.48478C1.41953 8.36813 1.34518 8.20871 1.33522 8.03908C1.32526 7.86945 1.38045 7.70242 1.48951 7.57212C1.59857 7.44182 1.75327 7.35808 1.922 7.33801L2 7.33334H2.66667ZM14 7.33334C14.1699 7.33353 14.3334 7.3986 14.4569 7.51524C14.5805 7.63189 14.6548 7.79131 14.6648 7.96094C14.6747 8.13057 14.6196 8.2976 14.5105 8.4279C14.4014 8.5582 14.2467 8.64194 14.078 8.66201L14 8.66668H13.3333C13.1634 8.66649 13 8.60142 12.8764 8.48478C12.7529 8.36813 12.6785 8.20871 12.6686 8.03908C12.6586 7.86945 12.7138 7.70242 12.8228 7.57212C12.9319 7.44182 13.0866 7.35808 13.2553 7.33801L13.3333 7.33334H14ZM4.142 3.20668L4.20467 3.26201L4.67133 3.72868C4.7909 3.84865 4.86032 4.00963 4.86549 4.17893C4.87066 4.34823 4.81119 4.51315 4.69917 4.6402C4.58715 4.76724 4.43097 4.84688 4.26235 4.86294C4.09374 4.87901 3.92533 4.83028 3.79133 4.72668L3.72867 4.67134L3.262 4.20468C3.14739 4.0898 3.07862 3.93706 3.06858 3.7751C3.05853 3.61314 3.10791 3.45307 3.20744 3.32491C3.30698 3.19675 3.44984 3.1093 3.60925 3.07894C3.76865 3.04858 3.93366 3.07741 4.07333 3.16001L4.142 3.20668ZM12.738 3.26201C12.8528 3.37681 12.9217 3.52954 12.9319 3.69156C12.9421 3.85357 12.8928 4.01374 12.7933 4.14201L12.738 4.20468L12.2713 4.67134C12.1514 4.79091 11.9904 4.86033 11.8211 4.8655C11.6518 4.87067 11.4869 4.8112 11.3598 4.69918C11.2328 4.58716 11.1531 4.43098 11.1371 4.26236C11.121 4.09375 11.1697 3.92534 11.2733 3.79134L11.3287 3.72868L11.7953 3.26201C11.9204 3.13703 12.0899 3.06682 12.2667 3.06682C12.4434 3.06682 12.613 3.13703 12.738 3.26201ZM8 1.33334C8.16329 1.33337 8.32089 1.39331 8.44291 1.50182C8.56494 1.61033 8.64289 1.75984 8.662 1.92201L8.66667 2.00001V2.66668C8.66648 2.8366 8.60141 3.00003 8.48477 3.12359C8.36812 3.24715 8.2087 3.3215 8.03907 3.33146C7.86944 3.34142 7.70241 3.28623 7.57211 3.17717C7.44181 3.06811 7.35807 2.91341 7.338 2.74468L7.33333 2.66668V2.00001C7.33333 1.8232 7.40357 1.65363 7.5286 1.52861C7.65362 1.40358 7.82319 1.33334 8 1.33334ZM8 4.66668C8.65312 4.66664 9.29186 4.85847 9.83689 5.21834C10.3819 5.57822 10.8092 6.09027 11.0657 6.69092C11.3222 7.29156 11.3966 7.95432 11.2797 8.59688C11.1627 9.23945 10.8596 9.8335 10.4079 10.3052C9.95621 10.777 9.37589 11.1057 8.73902 11.2504C8.10215 11.3952 7.43678 11.3497 6.82556 11.1195C6.21433 10.8894 5.68419 10.4847 5.30097 9.95585C4.91775 9.42698 4.69835 8.79718 4.67 8.14468L4.66667 8.00001L4.67 7.85534C4.70728 6.99718 5.0744 6.18653 5.69482 5.59245C6.31523 4.99837 7.14102 4.66673 8 4.66668Z" fill="currentColor"/>
  </symbol>

  <symbol id="icon-knight" viewBox="0 0 16 16">
    <path d="M8 1.5C7.115 1.5 6.5295 1.992 6.297 2.5C6.121 2.885 6.1425 3.1525 6.1405 3.375C5.75523 3.63896 5.39445 3.93699 5.0625 4.2655C4.3635 4.965 3.9805 5.9605 4 7.0155C4.01 7.5015 4.109 7.99117 4.297 8.4845C4.3905 8.7325 4.5625 9.162 4.719 9.6405C4.8755 10.119 5 10.6465 5 11H4.453C4.32039 11.0042 4.19487 11.0609 4.10406 11.1576C4.01325 11.2543 3.96457 11.3831 3.96875 11.5157C3.97293 11.6484 4.02961 11.7739 4.12633 11.8647C4.22306 11.9555 4.35189 12.0042 4.4845 12L3.594 13.203L3.5 13.328V14.5H12.5V13.328L12.406 13.203L11.5 12C11.68 12.002 11.8475 11.908 11.9395 11.752C11.9836 11.6753 12.0069 11.5885 12.0069 11.5C12.0069 11.4115 11.9836 11.3247 11.9395 11.248C11.8475 11.092 11.6795 10.998 11.5 11H11C11 9.869 10.297 8.832 9.6405 8.031C9.2655 7.5725 9.1425 7.492 8.8905 7.25C8.9805 7.1975 9.092 7.135 9.1565 7.0935C9.2365 7.043 9.2795 7.0115 9.2965 7C9.4375 7 9.4475 7.0235 9.594 7.1405C9.74 7.258 10.039 7.5 10.453 7.5C10.8165 7.5 11.082 7.2655 11.219 7.0935C11.344 6.9355 11.412 6.8165 11.422 6.797C11.467 6.7755 11.5645 6.744 11.6875 6.6565C11.8105 6.569 11.9705 6.373 12 6.1565C12.0295 5.94 11.961 5.75 11.875 5.5625C11.748 5.285 11.5115 4.967 11.1405 4.578C10.7695 4.1895 10.283 3.7775 9.6875 3.531C9.6425 3.5115 9.6795 3.541 9.656 3.516C9.633 3.49 9.5625 3.385 9.422 3.281C9.2385 3.1465 8.84 3.131 8.5 3.0935V1.5H8ZM7.5 2.6095V4H8C8.6815 4 8.832 4.082 8.828 4.078C8.826 4.076 8.83 4.086 8.9065 4.172C9.01933 4.29857 9.1577 4.3998 9.3125 4.469C9.7125 4.635 10.1135 4.959 10.422 5.281C10.711 5.582 10.9045 5.881 10.9375 5.9375C10.8575 5.9765 10.7735 6.004 10.672 6.125C10.535 6.291 10.4865 6.4065 10.4375 6.469C10.422 6.4885 10.424 6.494 10.422 6.5C10.379 6.494 10.3495 6.467 10.2185 6.3595C10.0545 6.2265 9.7285 6 9.297 6C8.9685 6 8.783 6.15 8.625 6.25C8.467 6.35 8.34 6.422 8.297 6.4375L8.281 6.453H8.266C8.174 6.492 8.016 6.5 8.016 6.5L7.5 6.4845V7.2815L7.672 7.4215C7.672 7.4215 8.2655 7.9455 8.8595 8.6715C9.453 9.399 10 10.3345 10 11H6C6 10.4395 5.8435 9.8515 5.672 9.328C5.5005 8.8045 5.297 8.348 5.219 8.1405C5.08135 7.77044 5.0073 7.37976 5 6.985C4.9845 6.182 5.2715 5.4635 5.7655 4.9695C6.092 4.643 6.578 4.2345 6.8435 4.0785L7.0935 3.938V3.6565C7.0935 3.4715 7.0935 3.1605 7.2035 2.9225C7.26133 2.78581 7.36664 2.67464 7.5 2.6095ZM5.75 12H10.25L11.375 13.5H4.625L5.75 12Z" fill="currentColor"/>
  </symbol>

  <symbol id="icon-balloon" viewBox="0 0 16 16">
    <path d="M6.67333 4.57334C6.69811 4.39831 6.79139 4.24029 6.93266 4.13402C7.07394 4.02776 7.25163 3.98195 7.42667 4.00668C8.41067 4.14668 9.18667 4.92268 9.328 5.90534C9.34043 5.99202 9.33567 6.08029 9.31399 6.16512C9.2923 6.24995 9.25413 6.32968 9.20163 6.39976C9.14913 6.46984 9.08335 6.52889 9.00803 6.57354C8.93271 6.6182 8.84934 6.64758 8.76267 6.66001C8.67599 6.67244 8.58772 6.66768 8.50289 6.646C8.41806 6.62432 8.33833 6.58614 8.26825 6.53364C8.19817 6.48114 8.13912 6.41536 8.09447 6.34004C8.04981 6.26472 8.02043 6.18135 8.008 6.09468C7.98006 5.90091 7.89016 5.72139 7.75172 5.58295C7.61329 5.44452 7.43377 5.35461 7.24 5.32668C7.06497 5.3019 6.90695 5.20862 6.80068 5.06735C6.69441 4.92608 6.64861 4.74838 6.67333 4.57334ZM2.66667 5.81868C2.66667 3.31201 4.78667 1.33334 7.33333 1.33334C9.88 1.33334 12 3.31201 12 5.81868C12 7.46534 11.3867 8.98534 10.528 10.096C9.848 10.976 8.948 11.6827 8 11.916V12.5333C8 12.8267 8.24 13.0667 8.53333 13.0667H10.1333C10.6284 13.0667 11.1032 13.2633 11.4533 13.6134C11.8033 13.9635 12 14.4383 12 14.9333V15.3333C12 15.5102 11.9298 15.6797 11.8047 15.8047C11.6797 15.9298 11.5101 16 11.3333 16C11.1565 16 10.987 15.9298 10.8619 15.8047C10.7369 15.6797 10.6667 15.5102 10.6667 15.3333V14.9333C10.6667 14.7919 10.6105 14.6562 10.5105 14.5562C10.4104 14.4562 10.2748 14.4 10.1333 14.4H8.53333C8.03826 14.4 7.56347 14.2033 7.2134 13.8533C6.86333 13.5032 6.66667 13.0284 6.66667 12.5333V11.916C5.72 11.6827 4.81867 10.9787 4.13867 10.0987C3.19379 8.87103 2.6768 7.36781 2.66667 5.81868ZM7.33333 2.66668C5.46267 2.66668 4 4.10668 4 5.81868C4 7.14268 4.49733 8.38001 5.19467 9.28401C5.912 10.212 6.73867 10.6667 7.33333 10.6667C7.92667 10.6667 8.75467 10.212 9.472 9.28134C10.2364 8.28786 10.6558 7.07214 10.6667 5.81868C10.6667 4.10668 9.204 2.66668 7.33333 2.66668Z" fill="currentColor"/>
  </symbol>

  <symbol id="icon-rotate" viewBox="0 0 16 16">
    <path d="M8 1.33301C9.31854 1.33301 10.6078 1.72449 11.7041 2.45703C12.8003 3.18956 13.6546 4.23115 14.1592 5.44922C14.6636 6.66729 14.7953 8.00771 14.5381 9.30078C14.2808 10.5939 13.6462 11.7816 12.7139 12.7139C11.7816 13.6462 10.5939 14.2808 9.30078 14.5381C8.00771 14.7953 6.66729 14.6636 5.44922 14.1592C4.23115 13.6546 3.18956 12.8003 2.45703 11.7041C1.72449 10.6078 1.33301 9.31854 1.33301 8C1.33301 7.63181 1.63181 7.33301 2 7.33301C2.36819 7.33301 2.66699 7.63181 2.66699 8C2.66699 9.05478 2.97945 10.0859 3.56543 10.9629C4.15146 11.84 4.98445 12.5241 5.95898 12.9277C6.93339 13.3313 8.00562 13.4362 9.04004 13.2305C10.0746 13.0247 11.0256 12.5174 11.7715 11.7715C12.5174 11.0256 13.0247 10.0746 13.2305 9.04004C13.4362 8.00562 13.3313 6.93339 12.9277 5.95898C12.5241 4.98445 11.84 4.15146 10.9629 3.56543C10.0861 2.97963 9.05542 2.66719 8.00098 2.66699C6.50011 2.67303 5.05853 3.25605 3.97754 4.29688L3.97852 4.29785L2.47168 5.80469C2.21133 6.06504 1.78867 6.06504 1.52832 5.80469C1.26824 5.54443 1.26835 5.12263 1.52832 4.8623L3.04297 3.34766C4.37254 2.06233 6.14782 1.34007 7.99707 1.33301H8Z" fill="currentColor"/>
    <path d="M1.33301 2C1.33301 1.63181 1.63181 1.33301 2 1.33301C2.36819 1.33301 2.66699 1.63181 2.66699 2V4.66699H5.33301C5.70109 4.66699 5.99982 4.96497 6 5.33301C6 5.7012 5.7012 6 5.33301 6H2C1.63181 6 1.33301 5.7012 1.33301 5.33301V2Z" fill="currentColor"/>
  </symbol>

</svg>
