<svg width="16" height="16" viewBox="0 0 16 16" fill="none" xmlns="http://www.w3.org/2000/svg">
<path d="M8 12.6667C8.16329 12.6667 8.32089 12.7266 8.44291 12.8352C8.56494 12.9437 8.64289 13.0932 8.662 13.2553L8.66667 13.3333V14C8.66648 14.1699 8.60141 14.3334 8.48477 14.4569C8.36812 14.5805 8.2087 14.6548 8.03907 14.6648C7.86944 14.6747 7.70241 14.6196 7.57211 14.5105C7.44181 14.4014 7.35807 14.2467 7.338 14.078L7.33333 14V13.3333C7.33333 13.1565 7.40357 12.987 7.5286 12.8619C7.65362 12.7369 7.82319 12.6667 8 12.6667ZM12.2087 11.2733L12.2713 11.3287L12.738 11.7953C12.8576 11.9153 12.927 12.0763 12.9322 12.2456C12.9373 12.4149 12.8779 12.5798 12.7658 12.7069C12.6538 12.8339 12.4976 12.9135 12.329 12.9296C12.1604 12.9457 11.992 12.897 11.858 12.7933L11.7953 12.738L11.3287 12.2713C11.2136 12.1565 11.1445 12.0036 11.1343 11.8413C11.1241 11.6791 11.1735 11.5187 11.2733 11.3904C11.3731 11.2621 11.5163 11.1746 11.676 11.1444C11.8357 11.1143 12.001 11.1435 12.1407 11.2267L12.2087 11.2733ZM4.67133 11.3287C4.78612 11.4435 4.85507 11.5962 4.86526 11.7582C4.87545 11.9202 4.82617 12.0804 4.72667 12.2087L4.67133 12.2713L4.20467 12.738C4.08469 12.8576 3.92371 12.927 3.75441 12.9322C3.58511 12.9373 3.42019 12.8779 3.29315 12.7658C3.1661 12.6538 3.08646 12.4976 3.0704 12.329C3.05434 12.1604 3.10306 11.992 3.20667 11.858L3.262 11.7953L3.72867 11.3287C3.85369 11.2037 4.02322 11.1335 4.2 11.1335C4.37678 11.1335 4.54631 11.2037 4.67133 11.3287ZM2.66667 7.33334C2.83659 7.33353 3.00002 7.3986 3.12358 7.51524C3.24714 7.63189 3.32149 7.79131 3.33145 7.96094C3.34141 8.13057 3.28622 8.2976 3.17716 8.4279C3.0681 8.5582 2.9134 8.64194 2.74467 8.66201L2.66667 8.66668H2C1.83008 8.66649 1.66665 8.60142 1.54309 8.48478C1.41953 8.36813 1.34518 8.20871 1.33522 8.03908C1.32526 7.86945 1.38045 7.70242 1.48951 7.57212C1.59857 7.44182 1.75327 7.35808 1.922 7.33801L2 7.33334H2.66667ZM14 7.33334C14.1699 7.33353 14.3334 7.3986 14.4569 7.51524C14.5805 7.63189 14.6548 7.79131 14.6648 7.96094C14.6747 8.13057 14.6196 8.2976 14.5105 8.4279C14.4014 8.5582 14.2467 8.64194 14.078 8.66201L14 8.66668H13.3333C13.1634 8.66649 13 8.60142 12.8764 8.48478C12.7529 8.36813 12.6785 8.20871 12.6686 8.03908C12.6586 7.86945 12.7138 7.70242 12.8228 7.57212C12.9319 7.44182 13.0866 7.35808 13.2553 7.33801L13.3333 7.33334H14ZM4.142 3.20668L4.20467 3.26201L4.67133 3.72868C4.7909 3.84865 4.86032 4.00963 4.86549 4.17893C4.87066 4.34823 4.81119 4.51315 4.69917 4.6402C4.58715 4.76724 4.43097 4.84688 4.26235 4.86294C4.09374 4.87901 3.92533 4.83028 3.79133 4.72668L3.72867 4.67134L3.262 4.20468C3.14739 4.0898 3.07862 3.93706 3.06858 3.7751C3.05853 3.61314 3.10791 3.45307 3.20744 3.32491C3.30698 3.19675 3.44984 3.1093 3.60925 3.07894C3.76865 3.04858 3.93366 3.07741 4.07333 3.16001L4.142 3.20668ZM12.738 3.26201C12.8528 3.37681 12.9217 3.52954 12.9319 3.69156C12.9421 3.85357 12.8928 4.01374 12.7933 4.14201L12.738 4.20468L12.2713 4.67134C12.1514 4.79091 11.9904 4.86033 11.8211 4.8655C11.6518 4.87067 11.4869 4.8112 11.3598 4.69918C11.2328 4.58716 11.1531 4.43098 11.1371 4.26236C11.121 4.09375 11.1697 3.92534 11.2733 3.79134L11.3287 3.72868L11.7953 3.26201C11.9204 3.13703 12.0899 3.06682 12.2667 3.06682C12.4434 3.06682 12.613 3.13703 12.738 3.26201ZM8 1.33334C8.16329 1.33337 8.32089 1.39331 8.44291 1.50182C8.56494 1.61033 8.64289 1.75984 8.662 1.92201L8.66667 2.00001V2.66668C8.66648 2.8366 8.60141 3.00003 8.48477 3.12359C8.36812 3.24715 8.2087 3.3215 8.03907 3.33146C7.86944 3.34142 7.70241 3.28623 7.57211 3.17717C7.44181 3.06811 7.35807 2.91341 7.338 2.74468L7.33333 2.66668V2.00001C7.33333 1.8232 7.40357 1.65363 7.5286 1.52861C7.65362 1.40358 7.82319 1.33334 8 1.33334ZM8 4.66668C8.65312 4.66664 9.29186 4.85847 9.83689 5.21834C10.3819 5.57822 10.8092 6.09027 11.0657 6.69092C11.3222 7.29156 11.3966 7.95432 11.2797 8.59688C11.1627 9.23945 10.8596 9.8335 10.4079 10.3052C9.95621 10.777 9.37589 11.1057 8.73902 11.2504C8.10215 11.3952 7.43678 11.3497 6.82556 11.1195C6.21433 10.8894 5.68419 10.4847 5.30097 9.95585C4.91775 9.42698 4.69835 8.79718 4.67 8.14468L4.66667 8.00001L4.67 7.85534C4.70728 6.99718 5.0744 6.18653 5.69482 5.59245C6.31523 4.99837 7.14102 4.66673 8 4.66668Z" fill="#2F2F2F"/>
</svg>
