<svg width="564" height="423" viewBox="0 0 564 423" fill="none" xmlns="http://www.w3.org/2000/svg">
<path fill-rule="evenodd" clip-rule="evenodd" d="M155.061 349.096C155.127 326.72 155.557 304.337 156.312 281.974C156.873 265.4 157.591 248.814 158.981 232.286C159.531 225.738 160.171 219.185 161.178 212.69C161.802 208.668 162.376 204.286 164.073 200.542C164.629 199.316 165.165 198.519 166.347 197.892C170.718 195.573 176.707 195.232 181.525 194.742C189.426 193.939 197.423 193.708 205.362 193.872C204.896 202.411 204.431 210.95 203.966 219.489C203.608 226.066 203.25 232.643 202.892 239.219C202.666 243.37 202.121 247.64 202.207 251.797C202.277 255.185 206.26 258.426 208.285 261.071C210.768 253.474 213.251 245.877 215.736 238.28C217.049 241.671 218.452 245.032 219.979 248.331C220.986 250.507 222.012 252.748 223.347 254.748C224.568 256.575 224.925 256.833 227.046 256.521C229.6 256.146 231.539 255.389 233.048 257.287C234.386 258.97 235.631 260.686 237.083 262.283C253.115 279.915 277.82 290.865 300.711 295.819C314.193 298.736 327.794 301.105 341.271 304.08C361.848 308.622 382.984 313.1 402.638 320.863C405.718 322.08 408.831 323.386 411.641 325.157C414.74 327.108 416.953 330.061 419.097 332.985C424.336 340.128 430.478 351.845 422.397 359.301C416.203 365.017 406.524 365.591 398.476 366.234C390.158 366.9 381.81 367.224 373.471 367.495C350.757 368.233 328.021 368.392 305.296 368.413C284.534 368.43 263.767 368.313 243.009 367.915C233.591 367.735 224.516 367.954 215.403 365.538C196.752 360.592 178.155 355.443 159.55 350.33C158.054 349.919 156.558 349.507 155.061 349.096Z" fill="#728CB0"/>
<path fill-rule="evenodd" clip-rule="evenodd" d="M344.586 153.543C343.714 154.448 345.127 155.146 345.762 155.343C345.66 154.47 345.238 154.075 344.586 153.543ZM225.16 323.762C224.824 322.97 224.323 322.318 223.407 322.692C221.892 323.31 224.956 323.754 225.16 323.762ZM356.846 196.139C357.472 196.217 360.033 196.057 359.242 194.663C358.324 193.048 357.063 195.639 356.846 196.139ZM310.929 181.853C312.275 180.699 313.482 178.935 313.496 177.102C312.227 177.944 311.549 180.55 310.929 181.853ZM343.209 158.685C344.33 158.741 343.304 157.163 343.315 156.848C343.338 156.173 343.969 155.594 343.867 154.794C343.863 154.761 342.733 152.231 342.435 152.07C341.596 151.619 341.109 152.446 340.356 152.702C339.241 153.082 338.697 152.747 337.5 152.864C336.445 152.967 335.557 153.48 334.454 153.48C334.193 153.48 333.903 152.924 333.602 152.955C333.133 153.003 333.089 153.601 332.757 153.631C331.592 153.734 331.525 153.271 330.438 152.837C328.632 152.114 327.365 153.795 327.405 155.782C327.459 158.414 330.204 159.489 332.307 160.094C335.02 160.873 336.527 161.343 339.283 160.852C340.08 160.71 340.89 160.964 341.519 160.414C342.364 159.675 341.916 158.116 342.881 157.395C342.99 157.825 343.099 158.255 343.209 158.685ZM247.776 263.389C248.001 265.108 247.528 265.994 249.197 267.146C250.181 267.827 251.42 268.275 252.463 268.956C253.973 269.944 256.238 270.579 257.578 271.714C258.429 272.435 258.58 274.476 259.76 274.724C260.764 274.934 261.961 273.119 262.305 272.302C262.686 271.398 262.432 270.652 262.587 269.748C262.691 269.142 263.145 269.016 263.065 268.303C262.982 267.556 262.257 267.161 261.942 266.568C261.66 266.036 261.574 265.282 261.353 264.862C260.832 263.875 259.675 261.777 258.643 261.123C257.774 263.405 257.115 261.093 255.91 260.423C255.461 260.411 255.011 260.407 254.561 260.412C254.328 260.19 254.091 259.972 253.85 259.76C253.294 259.708 252.379 260.005 251.878 260.159C251.602 260.097 251.323 260.06 251.04 260.049C250.664 260.159 250.515 260.368 250.594 260.677C250.758 260.602 249.85 261.152 249.764 261.211C247.972 262.429 246.329 262.914 245.997 265.504C246.59 264.799 247.183 264.094 247.776 263.389ZM261.749 170.938C259.833 165.973 260.441 161.599 260.626 156.402C260.67 155.182 260.93 152.565 259.655 151.755C258.064 150.746 256.74 153.029 255.908 153.974C254.482 155.596 252.491 157.086 251.76 159.191C251.114 161.048 251.78 163.327 252.273 165.167C252.804 167.149 253.46 169.815 255.265 170.914C257.193 172.086 259.806 171.971 261.749 170.938ZM329.277 276.526C329.001 272.72 323.708 274.054 321.329 275.227C319.549 276.104 318.553 277.442 317.432 279.033C316.16 280.839 315.743 281.344 315.844 283.49C315.937 285.449 315.828 287.419 316.319 289.368C316.568 290.357 316.624 290.532 317.28 291.213C317.279 291.211 318.417 292.345 318.1 292.164C319.569 293.002 321.759 293.143 323.484 293.273C325.95 293.458 326.543 293.492 327.544 291.148C327.736 291.556 327.929 291.964 328.12 292.372C328.182 292.083 328.867 288.66 328.709 288.694C328.433 288.753 328.136 289.55 328 289.752C328.086 288.175 329.209 286.997 329.752 285.591C330.253 284.298 330.458 282.834 330.844 281.497C331.218 280.202 331.636 278.402 331.275 277.058C330.794 275.274 330.643 275.782 329.277 276.526ZM361.23 192.644C362.09 193.454 361.324 194.765 361.435 195.768C362.604 195.052 362.199 194.668 362.651 193.502C362.943 192.751 363.802 191.314 364.552 192.545C364.868 193.062 363.825 193.773 364.531 194.077C364.946 194.255 366.051 192.865 366.253 192.646C367.646 191.138 368.537 189.597 368.652 187.54C368.684 186.977 368.676 185.573 368.476 185.249C367.897 184.316 366.357 184.868 366.489 183.162C367.102 183.467 367.715 183.772 368.328 184.077C368.519 182.159 366.449 181.024 365.583 179.501C364.597 177.767 363.957 176.505 362.351 175.013C361.61 174.324 360.404 172.905 359.441 172.573C358.692 172.315 358.389 172.696 357.634 172.703C356.055 172.718 353.683 172.291 356.033 174.043C355.555 174.267 354.928 174.406 354.521 174.759C354.219 175.021 354.106 175.768 353.752 175.947C352.989 176.333 352.418 175.58 351.556 176.437C350.649 177.339 351.577 177.908 351.375 178.306C350.794 179.45 349.994 178.881 350.02 180.625C350.063 183.5 351.718 186.903 352.61 189.59C353.133 191.169 353.719 193.638 355.928 192.991C355.844 193.751 355.652 194.488 356.146 195.166C356.607 194.624 356.772 193.433 357.082 192.796C357.541 191.857 358.286 190.95 358.813 190.038C358.736 191.48 358.58 191.881 357.599 192.973C358.889 193.131 360.478 194.165 361.23 192.644ZM266.849 234.427C268.032 233.531 266.478 232.532 268.812 233.04C269.407 233.17 268.809 233.866 269.708 233.892C270.048 233.901 270.88 233.066 271.115 232.87C271.33 232.69 272.297 231.387 272.453 231.302C272.193 231.442 273.627 230.886 273.179 231.247C274.033 230.559 274.684 229.428 275.068 228.053C276.01 224.681 275.875 220.653 273.923 217.757C273.104 216.543 272.451 215.061 271.218 214.247C269.545 213.142 266.78 212.485 264.912 211.783L265.517 210.312C260.388 212.63 256.851 218.042 256.419 223.54C256.264 225.517 255.7 228.029 256.905 229.782C258.162 231.612 261.331 233.536 263.082 231.503C262.816 232.636 263.596 233.991 264.794 234.282C265.246 234.392 265.674 234.063 265.874 234.093C266.129 234.129 266.667 234.464 266.849 234.427ZM219.768 119.639C216.322 119.229 216.856 125.454 217.502 127.323C218.023 128.831 219.891 130.93 220.879 132.243C222.057 133.808 223.628 134.976 225.298 135.975C225.871 136.317 226.29 136.426 226.784 136.617C226.96 136.443 227.17 136.352 227.415 136.344C227.63 136.703 227.935 136.972 228.33 137.15C229.583 137.54 231.656 137.481 232.902 137.428C234.909 137.343 237.252 136.188 239.249 135.803C240.182 135.623 240.701 135.551 241.526 135.066C241.942 134.822 242.756 132.941 242.872 134.788C243.387 134.472 243.224 133.951 243.601 133.719C243.96 133.497 245.108 133.284 245.536 132.797C246.133 132.117 246.927 130.567 247.342 129.638C247.609 129.042 248.175 127.506 248.131 126.886C248.036 125.573 247.613 125.875 246.49 125.331C245.74 124.967 245.308 124.663 244.558 124.462C244.471 124.439 244.263 124.886 244.116 124.848C243.859 124.781 243.755 124.485 243.575 124.427C242.206 123.983 240.59 122.667 238.897 122.795C238.166 122.85 237.481 123.963 237.106 123.907C236.529 123.819 236.817 122.634 236.414 122.204C235.387 121.11 231.96 121.287 230.629 121.098C227.012 120.582 223.391 120.101 219.768 119.639ZM340.487 214.256C340.817 211.674 341.224 209.109 338.392 207.837C337.329 207.36 336.444 207.533 335.354 207.403C333.938 207.235 334.144 206.625 333.093 208.145C332.512 207.398 332.898 207.156 331.947 207.067C331.554 207.031 329.841 208.146 329.395 208.328C327.536 209.089 325.169 209.018 323.767 210.552C322.404 212.043 321.302 213.476 320.728 215.51C320.438 216.535 320.247 217.596 319.889 218.602C319.502 219.69 318.631 220.627 318.333 221.715C317.12 226.143 322.278 230.185 325.901 231.36C326.368 231.264 326.825 231.294 327.274 231.449C327.59 231.658 327.873 231.904 328.125 232.188C329.265 232.545 329.536 232.428 330.696 231.904C332.608 231.042 334.842 230.749 336.289 232.766C336.736 230.418 338.366 231.815 339.15 230.303C339.583 229.469 338.637 227.159 339.185 226.558C340.115 225.538 343.017 227.353 342.942 224.969C342.914 224.1 341.927 223.813 341.585 223.126C340.971 221.894 341.312 220.59 342.166 219.507C342.246 219.694 342.555 220.922 342.964 220.597C344.049 219.734 342.265 218.374 341.875 217.903C341.234 217.127 340.65 216.535 340.793 215.451C340.882 214.779 341.96 214.08 341.921 213.427C341.891 212.93 340.56 214.198 340.487 214.256ZM290.092 242.139C290.165 243.95 289.008 244.186 288.246 245.431C288.039 245.771 288.026 246.583 287.736 247.081C287.195 248.013 286.819 248.071 286.645 248.979C286.665 248.878 286.935 249.879 286.942 249.993C287.016 251.271 286.128 252.293 286.372 253.698C286.715 255.674 288.217 257.876 289.276 259.52C291.671 263.237 295.018 266.118 299.603 266.38C302.665 266.556 309.87 265.332 310.527 262.13C310.354 261.759 310.207 261.377 310.088 260.983C310.017 260.414 310.228 260.026 310.72 259.818C311.098 259.719 311.394 259.509 311.607 259.188C311.504 258.862 311.333 258.576 311.096 258.329C311.181 257.901 311.903 257.88 311.891 257.603C311.87 257.089 311.417 255.799 311.296 255.213C311.086 254.199 310.971 253.234 310.786 252.214C310.636 251.389 310.13 250.982 310 250.225C309.911 249.709 310.435 249.241 310.391 248.693C310.046 248.384 309.765 248.024 309.551 247.613C309.526 247.185 309.632 246.789 309.866 246.423C309.352 242.823 304.257 239.799 300.633 239.716C298.686 239.671 295.361 239.532 293.61 240.549C292.44 241.228 291.655 243.639 290.092 242.139ZM211.931 369.048C209.371 367.894 207.079 366.665 204.338 366.104C202.359 365.7 200.661 364.588 198.672 364.226C194.268 363.423 189.511 362.682 185.286 361.137C180.756 359.481 175.824 358.887 171.181 357.511C168.895 356.832 166.9 356.388 164.537 356.257C162.233 356.13 159.865 354.845 157.563 355.062C155.639 355.244 154.266 356.722 152.76 357.776C150.808 359.142 148.678 360.321 146.58 361.449C144.353 362.647 141.872 363.247 139.675 364.416C137.85 365.385 136.058 366.331 134.176 367.22C124.18 371.944 114.528 376.356 105.513 382.928C108.42 383.813 111.727 382.931 114.616 382.619C118.722 382.175 122.813 381.842 126.879 381.081C129.257 380.637 133.9 378.94 136.172 380.244C138.168 381.39 138.015 384.331 138.301 386.298C140.185 385.571 142.061 384.825 143.962 384.142C145.457 383.605 147.883 382.129 149.406 382.077C153.65 381.933 153.186 387.889 152.773 390.622C155.253 389.78 157.61 389.192 160.014 388.149C161.941 387.312 164.068 387.128 165.94 386.13C170.59 383.652 175.75 382.098 180.729 380.339C186.346 378.354 191.952 376.331 197.521 374.213C199.81 373.342 202.068 372.193 204.41 371.487C206.931 370.726 209.513 370.154 211.931 369.048ZM267.356 141.961C267.001 145.31 267.367 148.688 267.47 152.042C267.59 155.969 267.595 159.854 268.103 163.758C269.021 170.801 270.312 177.846 272.834 184.51C275.13 190.579 279.004 194.871 285.565 196.183C291.459 197.361 297.204 195.34 300.955 190.63C304.846 185.747 306.042 179.578 308.32 173.918C309.434 171.15 310.259 168.367 311.189 165.535C311.746 163.839 314.509 158.969 313.718 157.226C312.947 155.525 308.393 154.943 306.817 153.997C304.313 152.494 301.997 149.481 300.085 147.279C298.805 145.803 298.057 144.712 297.193 147.053C296.155 149.866 296.907 153.116 295.939 155.844C294.985 158.527 292.904 155.88 292.691 154.132C292.281 150.774 292.774 146.96 292.932 143.585C293.228 137.297 293.641 130.023 299.312 126.145C304.686 122.471 310.519 121.327 313.504 114.983C314.7 112.439 316.106 109.775 315.359 106.929C314.495 103.644 313.217 100.21 311.959 97.0532C309.543 90.9913 305.76 85.7132 302.453 80.1475C302.006 79.3968 301.912 78.4346 300.936 78.2225C299.833 77.9824 297.256 79.86 296.186 80.1629C293.272 80.9869 290.668 79.2773 288.097 81.2122C286.033 82.7654 284.284 85.0004 281.5 85.1629C280.302 85.2329 278.675 84.1627 277.643 84.4183C276.327 84.7438 275.946 86.7073 275.439 87.8105C274.274 90.3419 272.974 93.5139 271.053 95.5832C270.401 96.2854 269.249 96.5024 268.692 97.1562C268.044 97.9157 268.404 99.4579 267.475 99.5961C266.937 99.676 266.508 98.9462 266.055 98.7722C265.285 98.4759 264.531 98.4191 263.707 98.4434C262.184 98.488 260.603 98.8559 259.264 99.5851C256.151 101.28 255 103.859 258.742 105.409C260.242 106.031 261.871 106.494 263.493 106.638C265.274 106.796 267.075 106.24 268.836 106.457C272.232 106.875 273.276 109.715 274.155 112.633C275.364 116.647 276.34 120.711 277.697 124.684C278.806 127.929 280.82 131.228 281.402 134.618C281.759 136.7 281.291 136.545 279.901 137.832C278.842 138.813 278.205 140.1 277.058 141.084C273.859 143.826 271.071 143.095 267.356 141.961ZM473.831 336.928C473.734 336.212 458.571 337.581 456.848 337.403C453.905 337.1 450.771 337.906 447.728 337.803C445.038 337.712 441.158 336.667 438.937 337.973C438.114 338.457 438.094 339.029 436.794 338.782C435.586 338.553 434.314 337.699 433.409 336.907C430.893 334.705 429.355 331.241 427.709 328.385C424.415 322.67 421.594 316.749 418.86 310.739C413.228 298.36 407.809 285.911 402.184 273.529C399.401 267.405 396.718 261.27 393.717 255.259C392.437 252.694 391.03 249.88 390.045 247.192C388.97 244.262 387.557 241.51 386.594 238.506C384.552 232.143 382.112 225.874 380.549 219.331C380.153 217.674 380.006 215.939 379.529 214.306C379.02 212.561 377.981 211.07 377.329 209.381C376.665 207.661 376.663 206.125 376.333 204.366C376.003 202.614 375.198 200.905 374.618 199.226C371.632 201.027 368.232 202.666 365.484 204.805C362.781 206.911 358.838 208.675 359.969 212.481C360.998 215.943 362.82 219.127 363.904 222.585C365.12 226.464 366.614 230.256 367.787 234.144C370.306 242.491 372.511 250.936 374.766 259.358C375.826 263.315 377.15 267.279 377.927 271.304C378.331 273.397 378.265 275.27 379.026 277.297C379.77 279.28 380.475 281.219 381.086 283.249C382.173 286.861 383.21 290.482 384.413 294.057C385.064 295.992 385.585 297.948 386.048 299.936C386.328 301.137 387.281 303.447 387.013 304.691C386.243 308.272 381.506 304.623 380.373 303.162C377.743 299.771 375.856 295.623 373.887 291.827C365.979 276.582 362.09 260.14 358.013 243.544C356.941 239.182 355.906 234.858 354.701 230.541C353.439 226.016 353.072 221.286 351.582 216.788C350.042 212.14 348.472 207.66 347.341 202.878C346.819 200.663 346.266 198.45 345.801 196.224C345.554 195.034 345.543 192.847 343.96 192.61C344.979 200.072 345.356 208.814 348.329 215.813C351.025 222.16 353.168 230.856 350.442 237.595C349.132 240.836 347.059 243.603 345.5 246.691C343.757 250.142 342.621 254.105 341.453 257.783C339.034 265.4 338.32 273.41 336.701 281.2C335.853 285.284 335.836 288.077 336.572 292.095C336.809 293.389 336.391 294.417 337.481 295.246C338.577 296.081 341.111 296.249 342.466 296.728C346.577 298.181 350.112 299.248 354.466 299.724C358.579 300.175 362.441 300.992 366.358 302.339C373.417 304.766 380.757 306.58 387.693 309.014C391.487 310.345 395.146 312.717 398.793 314.417C402.587 316.187 406.611 317.343 410.188 319.552C414.04 321.93 417.85 324.692 421.501 327.359C424.883 329.828 426.503 332.898 427.911 336.742C430.588 344.048 437.335 353.531 431.103 360.903C433.287 361.853 435.788 362.23 437.882 363.245C438.604 363.596 438.82 363.938 439.641 364.14C440.716 364.404 442.099 364.193 443.199 364.264C444.791 364.368 448.145 365.513 449.697 365.05C451.148 364.617 451.212 362.513 452.254 361.474C453.799 359.934 455.282 360.927 457.173 360.756C459.974 360.502 462.764 360.134 465.567 359.89C471.221 359.397 476.859 359.281 482.532 359.294C479.579 356.016 468.718 361.982 468.452 356.044C468.143 349.174 476.528 351.235 480.605 349.253C476.899 349.362 473.194 349.398 469.496 349.692C467.253 349.87 462.938 350.944 461.669 348.478C460.306 345.827 462.5 342.76 464.555 341.375C467.398 339.46 470.685 338.238 473.831 336.928ZM164.801 245.319C164.121 246.674 165.174 247.22 165.651 248.312C166.31 249.821 165.659 249.521 165.527 250.941C165.438 251.893 165.698 252.343 165.644 253.234C165.622 253.614 165.082 254.118 165.018 254.55C164.904 255.325 165.324 255.682 165.278 256.244C165.255 256.524 165.617 256.573 165.543 256.978C165.479 257.331 164.666 257.58 164.618 257.801C164.343 259.089 165.114 258.444 165.232 259.055C165.429 260.073 164.857 260.247 164.53 261.184C163.968 262.8 164.512 263.553 164.859 265.067C165.153 266.345 164.717 266.353 164.551 267.573C164.45 268.313 164.664 268.403 164.66 269.091C164.651 271.467 164.119 273.938 164.097 276.456C164.045 282.414 163.54 288.286 163.465 294.23C163.39 300.071 162.965 305.984 162.71 311.898C162.585 314.781 162.293 317.654 162.167 320.538C162.019 323.887 162.347 327.22 162.065 330.555C161.809 333.587 161.963 336.629 161.837 339.67C161.778 341.112 161.036 345.477 161.983 346.447C163.214 347.706 168.199 346.365 169.812 346.454C172.843 346.62 176.04 347.23 179.01 347.856C186.049 349.339 193.105 351.227 200.147 352.557C206.019 353.666 211.528 356.486 216.993 358.873C216.493 353.852 215.609 348.954 215.445 343.894C215.299 339.345 215.727 334.821 215.626 330.278C215.411 320.585 214.862 311 215.078 301.309C215.299 291.454 216.094 281.392 217.466 271.631C218.096 267.146 218.588 262.368 220.192 258.107C220.919 256.176 222.103 254.761 221.612 252.637C221.079 250.337 220.027 247.932 219.249 245.701C218.678 249.334 216.663 273.543 208.386 266.265C205.154 263.424 203.657 257.268 202.935 253.234C201.959 247.781 202.309 242.049 202.334 236.531C202.385 225.288 203.622 213.818 204.756 202.636C204.982 200.403 206.11 198.406 203.245 198.513C200.559 198.613 197.798 199.25 195.127 199.563C192.815 199.834 190.493 199.174 188.29 199.469C187.28 199.605 186.387 200.203 185.367 200.354C184.079 200.546 182.734 200.266 181.438 200.267C179.255 200.27 176.723 200.259 174.91 201.617C173.006 203.044 171.373 205.406 170.734 207.69C170.095 209.974 170.266 212.544 169.861 214.826C169.521 216.748 169.448 219.121 169.129 221.305C167.747 219.573 167.836 222.073 167.821 222.811C167.804 223.704 166.844 225.509 167.091 226.032C167.251 226.37 168.324 226.192 168.415 226.456C168.601 227.001 167.955 227.231 167.944 227.639C167.898 229.227 167.989 230.869 167.985 232.471C167.61 232.185 167.235 231.898 166.86 231.611C166.663 232.04 166.6 232.598 166.412 233.032C166.328 233.229 165.536 233.174 165.498 233.562C165.449 234.068 166.557 235.043 166.771 235.596C167.154 236.584 167.398 236.194 166.749 237.26C166.002 238.486 164.779 238.554 164.975 240.337C165.37 240.034 165.715 239.682 166.01 239.28C166.195 240.344 165.733 241.282 165.677 242.342C165.64 243.035 166.483 245.801 165.847 246.263C165.58 246.458 164.866 245.394 164.801 245.319ZM220.647 158.071C220.652 155.737 217.244 152.147 216.072 150.193C214.203 147.076 212.192 144.255 209.816 141.5C207.428 138.733 204.879 136.095 202.564 133.268C201.605 132.098 200.894 130.732 199.917 129.587C198.696 128.157 198.438 128.597 196.926 128.635C195.776 128.664 195.026 128.469 193.963 128.81C193.398 128.991 193.032 129.261 192.426 129.428C192.046 129.533 191.546 129.164 191.036 129.342C189.776 129.781 189.348 130.905 187.827 130.882C187.645 130.879 187.061 130.447 186.976 130.471C186.873 130.5 186.401 130.861 186.417 130.857C186.316 130.881 186.345 131.596 186.075 131.72C185.614 131.933 185.287 131.22 184.866 131.266C183.805 131.383 183.015 132.479 181.84 132.744C180.331 133.085 179.025 132.588 177.584 133.29C176.432 133.851 175.85 135.126 174.892 133.808C174.025 135.65 172.428 135.092 170.833 135.868C168.609 136.95 166.198 137.499 163.83 138.316C158.957 139.998 154.05 141.72 149.3 143.745C139.447 147.944 129.906 152.6 120.273 157.114C110.852 161.529 102.139 167.384 93.6609 173.277C89.5041 176.166 85.3716 179.201 82.1292 183.157C81.1466 184.355 79.5058 186.217 80.1679 187.903C80.8685 189.687 83.8295 190.794 85.5038 191.136C87.6992 191.585 90.1128 191.736 92.3478 191.885C94.7608 192.047 97.3528 192.127 99.741 192.094C104.448 192.029 109.065 191.571 113.794 191.466C119.173 191.348 124.447 190.213 129.815 190.146C135.717 190.072 141.551 189.332 147.462 189.563C158.854 190.009 170.237 190.338 181.663 190.393C183.084 190.4 184.478 190.228 185.874 190.476C187.007 190.677 187.826 191.073 189.041 190.986C190.173 190.905 191.222 190.41 192.375 190.35C193.89 190.271 195.441 190.521 196.964 190.489C202.104 190.384 208.2 189.917 213.155 191.542C215.122 192.189 217.597 194.069 216.397 196.507C215.211 198.917 212.18 196.953 210.304 198.048C208.557 199.069 209.526 201.854 209.649 203.519C209.882 206.674 209.925 209.812 209.842 212.973C209.658 219.955 209.233 226.929 209.151 233.912C209.112 237.305 209.161 240.696 209.34 244.084C209.498 247.074 209.393 250.328 210.415 253.182C211.839 249.619 212.012 245.685 212.577 241.931C213.188 237.869 213.786 233.807 214.367 229.74C214.712 227.324 215.071 212.815 219.798 214.711C224.823 216.725 223.076 227.886 223.304 231.899C223.52 235.687 223.907 239.46 224.765 243.161C225.164 244.881 226.261 252.186 228.467 252.658C230.084 245.013 231.795 237.381 232.984 229.655C233.509 226.244 233.972 222.808 234.181 219.362C234.29 217.569 234.157 213.258 236.75 213.049C244.371 212.435 239.258 244.544 244.953 248.584C247.059 244.394 247.882 240.024 248.454 235.38C248.714 233.265 249.27 230.885 248.942 228.764C248.51 225.99 248.042 224.289 248.622 221.422C249.095 219.075 249.436 216.666 249.984 214.339C250.379 212.663 251.409 211.844 251.953 210.332C253.484 206.075 253.386 200.687 253.997 196.218C254.615 191.692 255.267 187.243 254.465 182.678C253.672 178.156 250.364 176.719 246.604 174.852C242.815 172.972 239.16 170.905 234.999 170.076C230.327 169.145 226.04 168.242 221.258 167.994C212.819 167.559 204.549 168.064 196.148 168.464C186.806 168.909 177.456 168.355 168.119 168.226C163.581 168.164 158.957 168.076 154.426 168.15C152.156 168.188 149.953 168.582 147.668 168.524C145.721 168.476 141.915 169.076 140.211 168.041C138.874 167.228 138.876 165.428 140.005 164.436C141.123 163.453 143.317 163.401 144.714 163.098C149.178 162.129 153.628 161.573 158.124 160.795C160.713 160.347 162.885 160.199 165.48 160.325C168 160.448 170.57 159.728 173.118 159.605C178.517 159.348 183.948 159.092 189.35 159.008C199.819 158.845 210.168 158.046 220.647 158.071ZM226.11 260.475C225.268 260.8 225.482 264.823 225.406 265.627C225.178 268.033 224.929 270.437 224.714 272.844C224.22 278.402 223.847 283.972 223.543 289.544C223.24 295.115 222.88 300.705 222.898 306.286C222.906 308.662 223.012 311.036 222.965 313.412C222.929 315.188 222.147 318.512 223.663 319.774C224.68 320.62 226.671 320.239 227.859 320.161C230.207 320.007 232.56 319.85 234.914 319.833C237.632 319.812 240.332 320.104 243.053 320.033C244.096 320.006 245.262 319.832 246.295 320.029C247.044 320.172 247.86 320.818 248.563 320.846C249.079 320.867 249.747 320.354 250.319 320.253C251.207 320.096 252.251 320.278 253.155 320.267C253.798 320.26 255.349 319.969 255.941 320.349C256.518 320.719 256.296 321.562 256.823 321.749C257.023 321.82 258.168 320.461 258.364 320.375C259.24 319.992 260.518 320.29 261.442 320.3C264.101 320.33 266.762 320.162 269.422 320.187C272.015 320.212 274.516 320.513 277.005 320.815C278.651 321.014 280.54 320.515 282.287 320.368C285.081 320.134 287.886 320.177 290.686 320.234C292.091 320.262 293.498 320.284 294.904 320.318C295.236 320.327 295.895 320.197 296.216 320.293C297.506 320.68 296.688 320.703 297.599 321.292C296.403 320.519 300.275 320.016 300.498 320.014C302.255 320.001 303.865 320.864 305.327 320.695C306.911 320.512 308.528 319.533 310.271 319.837C311.086 319.979 311.762 320.89 312.367 320.994C313.346 321.163 313.68 320.457 314.577 320.103C316.367 319.397 318.444 320.012 320.313 319.89C322.936 319.719 325.462 319.713 328.095 319.677C332.9 319.614 337.704 319.535 342.509 319.581C346.933 319.624 350.488 321.399 354.888 321.302C357.196 321.252 359.543 321.05 361.847 321.106C363.826 321.153 364.837 322.628 363.341 324.361C362.33 325.532 360.473 325.656 359.047 325.87C356.93 326.189 354.851 326.647 352.742 327.001C347.726 327.842 342.476 327.816 337.402 327.968C316.71 328.591 296.013 330.431 275.308 330.625C266.217 330.711 257.028 331.476 247.966 331.119C242.91 330.92 237.968 332.007 232.873 331.226C230.725 330.896 228.613 330.696 226.448 330.542C226.166 330.522 224.512 330.202 224.199 330.344C223.277 330.764 223.792 330.38 223.405 331.447C222.77 333.2 223.034 335.995 223.038 337.861C223.044 340.835 223.189 343.814 223.289 346.786C223.385 349.634 223.543 352.479 223.713 355.324C223.783 356.501 223.32 360.926 224.227 361.804C224.93 362.484 228.215 362.162 229.104 361.972C230.17 361.744 230.27 361.688 231.425 361.823C232.276 361.923 232.579 361.899 233.432 361.807C235.873 361.543 238.669 361.496 241.121 361.937C243.023 362.279 245.022 361.376 245.75 363.377C246.981 361.871 246.953 362.739 248.305 363.041C249.699 363.353 249.272 362.453 250.453 362.329C251.285 362.242 252.028 362.899 252.928 362.905C254.414 362.915 255.751 362.522 257.341 362.72C264.359 363.596 271.476 364.383 278.553 364.448C281.489 364.476 284.391 364.521 287.311 364.61C288.801 364.655 290.21 364.811 291.675 364.986C293.056 365.153 294.141 364.82 295.576 364.748C298.75 364.586 302.08 365.069 305.255 365.243C306.748 365.324 308.617 365.068 310.049 365.264C311.487 365.461 311.596 366.553 312.74 367.187C312.92 363.641 320.334 365.912 322.264 365.917C323.022 365.919 323.948 365.596 324.863 365.654C326.377 365.752 327.902 365.777 329.418 365.83C331.836 365.915 334.173 366.061 336.47 365.768C339.47 365.386 342.729 365.794 345.76 365.775C349.06 365.754 352.361 365.709 355.66 365.601C359.002 365.492 362.338 365.288 365.68 365.18C368.582 365.087 371.662 365.321 374.523 365.108C375.265 365.053 375.974 364.509 376.637 364.481C377.557 364.442 378.586 364.837 379.647 364.746C382.991 364.461 386.106 364.414 389.486 364.426C395.284 364.445 401.307 363.375 406.865 361.839C409.428 361.131 412.091 361.093 414.635 360.334C417.571 359.457 420.261 357.929 422.964 356.514C425.08 355.406 428.056 354.89 427.194 352.089C426.274 349.097 424.805 346.197 423.71 343.259C422.759 340.704 422.152 338.215 420.089 336.293C418.05 334.394 415.445 333.119 413.273 331.368C408.538 327.552 403.596 325.271 397.99 323.011C392.339 320.733 387.183 317.373 381.247 315.859C375.735 314.452 370.424 312.566 365.023 311.125C359.114 309.548 353.02 308.976 347.06 307.574C341.348 306.231 335.74 304.254 329.952 303.231C323.69 302.124 317.371 301.555 311.132 300.204C305.843 299.06 300.797 296.818 295.48 295.923C293.927 295.662 292.247 295.502 290.744 295.014C289.339 294.557 288.333 293.633 286.912 293.259C283.631 292.394 280.781 291.216 277.675 289.812C276.369 289.221 275.645 288.495 274.513 287.762C273.163 286.889 271.434 286.579 269.919 286.098C267.001 285.171 264.094 284.259 261.475 282.632C258.761 280.945 256.267 279.039 253.769 277.068C252.711 276.233 251.58 275.396 250.495 274.615C249.159 273.654 247.788 273.48 246.291 272.852C239.795 270.127 236.951 263.729 233.413 258.162C233.081 262.67 228.768 264.762 226.11 260.475ZM318.423 181.507C318.87 179.488 319.509 176.59 316.992 176.477C316.83 176.47 315.163 176.886 314.991 176.997C314.134 177.548 313.809 179.387 313.482 180.28C313.194 181.068 312.994 182.116 312.354 182.711C311.723 183.299 311.064 183.313 310.474 184.017C308.681 186.159 307.346 189.838 306.261 192.424C307.733 192.068 306.663 193.055 307.289 193.618C308.267 194.496 307.962 194.337 309.352 194.473C311.773 194.71 312.878 194.065 314.771 192.557C316.376 191.278 316.892 190.44 317.816 188.594C319.138 185.957 318.493 184.277 318.42 181.505C319.082 182.115 319.745 182.724 320.408 183.335C320.202 182.536 319.996 181.736 319.791 180.938L318.423 181.507ZM248.775 22.0696C250.062 17.6656 252.465 17.34 255.697 20.5043C256.209 19.3724 256.816 17.6149 258.305 17.6248C259.361 17.632 259.548 18.4857 260.256 19.0618C261.111 19.7585 261.778 20.0031 262.863 20.1887C265.23 20.5935 267.431 20.4547 269.659 21.5133C271.689 22.4772 272.655 23.885 274.218 25.3286C275.68 26.6791 276.747 25.8045 278.417 26.488C280.273 27.248 281.103 29.4974 281.462 31.32C281.901 33.5495 281.444 34.26 282.994 35.8788C284.456 37.4061 285.231 39.3509 285.408 41.4494C285.573 43.4339 285.136 45.789 283.99 47.4623C282.701 49.347 281.364 48.826 283.043 51.0649C283.888 52.1924 283.983 54.5921 285 55.315C286.777 56.5779 289.073 54.5404 290.643 54.0276C292.777 53.3308 292.301 54.4963 293.237 55.9021C294.62 57.9786 295.442 55.836 297.329 56.2508C298.022 56.4033 298.225 57.1518 298.469 57.2416C299.331 57.5611 298.416 57.4427 299.4 57.0874C300.055 56.8517 299.606 55.5827 300.924 56.3069C301.84 56.8109 301.151 57.707 301.567 58.3558C302.385 59.6315 303.599 58.8879 304.204 60.5342C304.806 62.1739 305.62 64.3483 305.955 66.1411C306.362 68.3189 305.405 70.2142 305.545 72.2746C305.692 74.4265 307.824 75.8768 309.15 77.3853C315.654 84.779 318.408 94.5036 320.53 103.903C322.502 112.639 319.031 122.529 312.216 128.45C308.761 131.452 304.444 132.739 301.126 136.042C299.654 137.509 299.673 137.973 301.428 139.175C302.865 140.159 304.184 141.413 305.707 142.191C309.624 144.19 313.44 145.618 317.813 146.458C320.019 146.881 322.315 146.712 324.546 146.632C326.869 146.55 329.491 146.879 331.761 146.595C333.766 146.345 335.353 144.726 337.452 144.898C338.275 144.965 338.779 145.28 339.617 145.205C340.717 145.108 341.642 144.526 342.812 144.556C344.591 144.601 346.351 144.631 348.07 144.696C350.023 144.768 352.319 144.234 354.263 144.571C356.107 144.891 358.301 146.55 359.905 147.517C361.883 148.71 364.258 150.089 366.028 151.546C367.701 152.923 368.881 155.114 370.186 156.823C371.565 158.632 373.162 160.248 374.549 162.049C380.012 169.137 385.766 177.867 387.474 186.791C387.906 189.049 387.883 191.279 387.557 193.547C387.266 195.573 385.365 196.343 385.307 198.521C385.19 202.928 387.302 208.038 388.528 212.215C389.819 216.613 391.437 220.885 393.44 225.021C394.216 226.622 395.199 227.946 395.687 229.605C396.283 231.632 397.19 233.554 397.854 235.598C403.596 253.277 412.498 269.735 418.987 287.147C422.474 296.503 426.161 305.778 429.964 315.015C431.835 319.562 433.861 323.97 435.895 328.448C436.163 329.036 436.353 330.17 436.819 330.575C437.606 331.259 436.912 330.87 438.014 330.754C438.965 330.653 439.952 330.22 440.911 330.059C443.227 329.67 445.599 329.604 447.934 329.373C450.617 329.108 452.98 328.97 455.665 329.1C458.164 329.221 460.623 328.478 463.111 328.314C468.443 327.961 473.701 328.147 479.029 328.246C483.181 328.324 488.497 327.831 492.339 329.758C496.188 331.689 494.86 336.136 491.596 337.83C487.685 339.86 483.081 340.149 479.195 342.218C482.111 343.115 485.263 342.884 488.235 343.585C490.15 344.036 493.11 344.37 494.554 345.768C495.952 347.122 495.81 349.455 494.887 351.043C493.738 353.021 491.529 353.362 489.54 354.048C490.436 355.235 491.829 355.143 492.635 356.707C493.707 358.789 493.037 361.012 491.725 362.812C488.878 366.718 483.24 367.048 478.839 367.605C474.514 368.153 469.972 368.284 465.618 367.987C463.138 367.818 460.69 367.694 458.24 367.345C455.422 366.943 455.693 368.918 454.689 370.939C453.717 372.895 452.315 373.733 450.145 373.613C447.802 373.482 445.204 373.322 442.883 372.93C440.66 372.554 438.736 371.407 436.604 370.929C434.685 370.497 433.161 369.801 431.337 368.868C429.244 367.796 428.131 366.004 426.299 364.773C424.419 363.509 422.451 365.494 420.602 366.482C416.109 368.883 411.177 369.945 406.262 371.125C401.25 372.329 396.369 373.87 391.271 374.703C388.899 375.09 386.646 375.039 384.284 375.29C381.564 375.581 379.205 376.62 376.426 376.625C366.614 376.646 356.738 378.417 346.921 378.745C337.202 379.069 327.326 378.265 317.618 378.916C312.654 379.249 307.85 378.581 302.914 378.838C297.822 379.103 292.55 378.835 287.469 378.446C276.923 377.639 266.706 377.849 256.271 377.327C250.843 377.054 245.309 376.543 239.95 375.681C234.695 374.836 228.748 375.81 225.031 371.238C224.622 373.03 224.511 374.889 223.201 376.302C221.823 377.788 219.604 378.388 217.76 379.065C213.052 380.793 208.292 382.434 203.551 384.074C199.057 385.628 194.534 387.312 190.004 388.737C185.243 390.235 180.714 392.05 176.034 393.808C171.793 395.401 167.398 396.66 163.312 398.58C161.626 399.372 159.86 399.438 158.248 400.177C156.258 401.091 154.409 401.967 152.276 402.626C150.447 403.191 148.774 403.597 147.004 404.332C145.251 405.059 142.768 406.323 140.934 405.355C139.645 404.676 139.138 403.114 138.742 401.809C138.245 400.178 138.669 397.349 136.738 397.422C134.83 397.494 132.136 399.33 130.266 399.953C128.028 400.699 125.737 401.946 123.432 402.368C121.125 402.791 119.308 402.664 118.097 400.518C116.735 398.104 116.962 395.545 117.369 392.918C113.441 392.909 109.803 393.278 105.84 393.412C103.658 393.486 101.535 393.583 99.3582 393.343C97.3935 393.126 94.4728 393.742 92.7686 392.843C89.3048 391.015 89.8203 385.843 91.5674 383.014C92.5379 381.444 94.0586 380.386 95.6041 379.433C97.5423 378.239 98.9633 376.884 100.661 375.363C99.5537 374.6 98.114 374.971 97.0284 374.062C96.1851 373.357 95.6602 372.181 95.2752 371.177C94.5576 369.306 95.4823 365.014 93.863 363.954C92.9983 363.388 91.4666 363.628 90.4785 363.174C89.1285 362.554 88.1806 361.411 87.599 360.051C86.2892 356.986 87.4117 353.794 88.6895 350.93C83.8482 350.105 76.7508 349.776 75.3662 344.17C74.9233 342.379 74.8627 340.306 75.4719 338.545C76.3763 335.933 78.4825 335.792 80.8178 335.025C90.5815 331.821 99.7261 326.617 110.245 325.846C115.88 325.432 121.555 325.215 127.183 324.631C132.836 324.043 138.285 323.007 143.975 323.711C146.396 324.01 149.198 323.743 151.514 324.181C153.753 324.604 154.036 327.245 152.325 328.769C150.662 330.25 148.249 329.303 146.269 329.469C143.462 329.704 141.097 331.032 138.477 331.868C132.047 333.921 125 335.377 118.295 336.114C114.695 336.509 111.295 336.562 107.771 337.522C104.57 338.395 101.402 339.385 98.1894 340.22C101.699 341.159 108.497 341.054 109.665 345.33C110.215 347.342 109.605 350.126 107.836 351.37C106.809 352.093 104.565 351.763 103.919 352.843C106.682 353.182 109.833 351.056 111.35 354.096C113.081 357.566 111.388 360.304 109.173 362.88C111.13 362.556 113.142 362.925 115.118 362.675C116.643 362.481 118.068 362.022 119.517 362.5C120.244 362.739 120.148 363.387 121.066 363.391C121.734 363.393 122.733 362.667 123.313 362.388C125.515 361.325 127.749 360.46 130.025 359.573C132.794 358.493 135.426 357.663 138.19 356.986C142.006 356.049 145.837 353.646 149.56 352.287C151.138 351.712 153.166 351.122 153.949 349.48C154.758 347.785 154.138 345.305 154.089 343.513C153.948 338.472 154.008 333.424 154.039 328.382C154.065 324.142 154.167 319.981 154.544 315.757C154.995 310.703 154.592 305.667 154.785 300.604C154.963 295.956 154.546 291.318 154.673 286.671C154.814 281.494 155.073 276.336 155.126 271.154C155.222 261.844 155.535 252.545 155.715 243.237C155.9 233.676 156.914 224.111 158.957 214.762C159.873 210.575 161.068 206.309 162.661 202.331C163.166 201.07 163.694 200.999 162.482 200.278C161.762 199.852 160.874 200.329 160.168 200.423C158.684 200.622 157.36 200.709 155.85 200.62C147.192 200.113 138.229 200.524 129.603 201.302C125.117 201.707 120.607 202.092 116.102 202.253C111.61 202.413 107.118 203.109 102.625 202.78C95.0979 202.229 86.5123 203.09 80.061 198.242C73.1768 193.069 73.8251 183.903 78.2704 177.281C83.1762 169.973 91.3702 165.809 98.2126 160.688C104.935 155.656 112.836 151.966 120.168 147.914C135.862 139.239 152.727 131.209 169.625 125.214C186.817 119.115 204.067 112.103 222.792 113.295C232.278 113.899 242.891 114.251 251.259 119.292C255.729 121.985 260.056 124.793 263.897 128.35C265.706 130.026 267.301 132.092 269.227 133.623C271.018 135.047 272.774 134.072 274.821 133.549C273.371 128.871 271.921 124.192 270.472 119.515C268.47 121.068 265.716 121.658 263.113 121.109C259.953 120.442 260.209 119.092 260.491 116.388C260.624 115.134 260.966 115.348 259.877 114.556C258.985 113.907 257.354 113.694 256.327 113.131C253.764 111.727 251.543 109.666 250.598 106.835C249.659 104.021 250.325 101.41 250.939 98.6163C251.678 95.2571 249.851 96.6616 247.763 95.0996C246.844 94.4122 246.515 93.8151 246.673 92.68C246.802 91.7585 248.623 90.4317 248.542 89.5246C248.443 88.4313 247.834 88.5535 246.97 87.8942C246.016 87.1667 245.329 86.2744 244.908 85.1293C244.017 82.7042 245.833 81.2061 246.595 78.9699C246.964 77.886 247.327 76.959 248.051 76.0469C249.336 74.4309 249.834 74.4662 251.626 74.4805C253.135 74.4921 253.118 74.3687 254.248 73.0044C254.687 72.4751 255.124 71.9491 255.503 71.3747C256.154 70.3882 256.335 70.5221 255.639 69.7515C253.517 67.403 252.549 71.0695 250.665 70.8481C248.486 70.592 248.094 67.1358 246.728 65.9814C245.772 65.1734 244.681 65.4813 243.635 64.9355C242.356 64.2685 242.1 62.9967 241.27 61.931C239.923 60.2015 237.967 59.8964 237.068 57.7021C236.558 56.4568 236.488 55.1745 236.384 53.8541C236.236 51.9743 235.744 50.4883 235.197 48.6988C234.64 46.8735 234.777 45.5544 235.684 43.875C236.618 42.1445 236.728 41.5623 236.493 39.6103C236.314 38.1243 236.259 36.8052 237.034 35.4795C237.87 34.0508 238.044 33.305 238.317 31.6774C238.554 30.2504 239.008 29.2226 240.387 28.6305C241.328 28.2268 242.345 28.6762 243.01 27.757C243.672 26.8394 243.495 25.3693 244.176 24.3553C245.287 22.7013 246.957 22.4425 248.775 22.0696Z" fill="#2F2F2F"/>
<path fill-rule="evenodd" clip-rule="evenodd" d="M303.746 95.5694C303.1 94.0531 300.941 87.0593 304.493 87.0235C307.311 86.9948 306.421 93.0639 306.455 94.5538C306.52 97.3424 309.437 97.7384 310.528 100.268C311.802 103.218 310.923 106.739 308.939 109.143C307.423 110.978 304.508 113.08 302.426 110.834C300.112 108.335 302.336 106.932 303.956 105.376C306.303 103.12 301.813 102.465 300.647 100.635C298.666 97.5252 300.841 95.9076 303.746 95.5694Z" fill="#2F2F2F"/>
<path fill-rule="evenodd" clip-rule="evenodd" d="M293.57 97.1468C293.246 98.5865 293.345 101.874 291.781 102.65C289.157 103.952 288.552 97.675 288.572 96.2892C288.594 94.8153 289.104 91.3327 291.277 91.7838C293.716 92.29 292.333 96.8059 293.57 97.1468Z" fill="#2F2F2F"/>
<path fill-rule="evenodd" clip-rule="evenodd" d="M303.383 115.378C307.262 115.498 307.043 120.124 303.324 120.285C299.863 120.435 299.948 115.271 303.383 115.378Z" fill="#2F2F2F"/>
<path fill-rule="evenodd" clip-rule="evenodd" d="M311.632 184.321C311.27 185.862 310.425 187.315 309.158 188.286C309.457 187.677 310.753 184.047 311.632 184.321Z" fill="#2F2F2F"/>
</svg>
