<svg width="525" height="394" viewBox="0 0 525 394" fill="none" xmlns="http://www.w3.org/2000/svg">
<path fill-rule="evenodd" clip-rule="evenodd" d="M269.328 48.613C267.741 52.815 266.156 57.0176 264.569 61.2198C263.552 63.9126 262.535 66.605 261.519 69.2978C261.158 70.2526 260.957 71.2319 260.26 71.8947C258.616 73.4553 255.666 74.4485 253.691 75.5464C252.368 76.2821 251.044 77.0178 249.721 77.7534C249.038 78.1331 247.525 78.6097 247.047 79.2397C246.521 79.9338 246.77 81.2086 246.77 82.1685V90.4558V106.071C253.605 105.216 260.442 104.361 267.277 103.506C258.17 114.021 249.063 124.536 239.955 135.052C237.711 137.643 234.986 140.137 233.313 143.152C229.754 149.57 226.275 156.034 222.757 162.475C219.482 168.469 216.207 174.465 212.932 180.459L242.396 179.204C250.024 178.88 257.861 179.368 265.211 177.205C271.27 175.421 277.328 173.639 283.387 171.855C284.193 171.618 286.703 171.349 287.275 170.7C287.809 170.093 287.798 167.796 287.949 167.018C290.809 152.31 294.45 136.101 302.796 123.44C308.781 114.365 316.855 106.418 324.251 98.5041C327.137 95.4152 330.074 92.3632 332.858 89.1805C333.571 88.3653 334.601 87.4403 335.073 86.4502C335.377 85.8104 335.803 84.5915 335.613 84.0236C335.531 83.7773 333.629 82.8939 333.356 82.7184C331.428 81.4785 329.517 80.2123 327.601 78.9524C322.219 75.4115 316.842 71.8619 311.429 68.3682C307.209 65.6441 303 62.7558 298.549 60.4149C293.935 57.9883 288.854 56.2804 284.017 54.3633C279.129 52.4256 274.232 50.5101 269.328 48.613Z" fill="#728CB0"/>
<path fill-rule="evenodd" clip-rule="evenodd" d="M435.232 273.103C432.885 275.316 428.611 278.286 425.232 276.935C423.535 276.257 422.086 274.768 420.54 273.807C418.724 272.679 417.017 271.55 415.477 270.045C412.406 267.043 410.08 262.657 406.452 260.307C405.233 259.517 402.853 259.348 402.007 258.086C401.628 257.521 401.593 256.662 401.663 256.008C401.814 254.599 402.575 254.683 401.304 253.648H403.277C403.315 252.885 402.555 252.822 401.988 252.921C402.251 251.712 402.52 246.98 400.317 249.124C398.408 250.983 399.363 254.067 398.011 256.08C396.976 257.622 394.229 256.373 393.858 254.677C393.692 253.916 394.53 252.726 394.63 251.979C394.85 250.322 394.111 248.89 393.037 247.636C390.682 249.206 392.017 252.456 390.674 254.519C389.46 256.386 386.755 255.515 384.906 255.187C382.689 254.793 380.182 255.191 378.061 254.668C374.858 253.877 376.054 250.114 375.738 247.685C375.398 245.084 372.77 241.473 373.56 238.849C374.408 236.031 379.365 235.422 381.735 234.738C387.15 233.175 394.875 232.874 398.901 228.498C402.103 232.072 404.679 236.163 408.038 239.604C411.666 243.32 415.541 246.75 419.023 250.616C422.648 254.639 426.39 258.585 429.883 262.724C431.407 264.53 432.745 266.476 434.322 268.239C435.723 269.805 437.201 271.247 435.232 273.103ZM274.265 203.602C275.929 202.717 276.141 203.272 276.14 205.095C275.661 204.22 275.186 203.985 274.265 203.602ZM260.156 239.055V235.84C261.76 235.798 260.773 238.548 260.156 239.055ZM259.763 243.842C259.763 242.419 259.725 241.063 260.135 239.679C260.35 241.187 260.762 242.494 259.763 243.842ZM266.661 341.635C268.135 341.773 270.405 340.758 271.645 341.915C272.918 343.103 272.816 346.563 273.117 348.169C273.615 350.823 274.057 353.485 274.477 356.152C274.752 357.9 275.092 359.676 273.117 360.345C270.198 361.333 266.026 359.923 262.984 359.794C256.973 359.541 250.964 359.189 244.948 359.067C239.118 358.949 233.273 359.043 227.469 359.65C224.847 359.924 222.283 360.408 219.688 360.846C218.32 361.077 214.655 362.044 213.419 360.891C211.095 358.719 214.959 353.647 216.622 352.215C219.706 349.557 224.094 347.64 227.962 346.486C230.029 345.869 233.475 344.136 235.104 346.074C236.353 347.56 236.303 349.544 238.094 350.67C242.242 353.279 239.815 345.795 237.223 344.874C238.963 340.797 242.281 346.553 243.657 347.935C244.147 348.427 245.739 350.05 246.431 349.234C246.949 348.623 245.914 346.436 245.723 345.841C245.431 344.937 244.695 343.562 244.906 342.581C245.29 340.807 247.777 340.324 249.266 340.176C251.576 339.948 253.841 340.68 256.125 340.925C259.626 341.3 263.155 341.306 266.661 341.635ZM243.471 174.539C238.911 174.902 234.323 174.204 229.775 174.775C225.471 175.316 221.416 176.897 217.359 178.35C223.39 164.195 231.193 151.309 240.704 139.238C245.441 133.226 250.535 127.256 255.653 121.566C258.034 118.919 260.497 116.359 262.956 113.786C265.149 111.491 266.721 107.593 269.353 105.879C271.599 104.416 275.526 105.46 278.015 105.55C280.829 105.653 284.254 105.909 286.999 104.972C288.987 104.293 289.535 102.48 287.045 102.42C284.109 102.349 281.221 102.655 278.246 102.379C270.539 101.667 263.109 100.496 255.339 101.16C253.559 101.312 251.216 102.071 249.469 101.843C248.213 101.678 249.039 102.31 248.166 101.302C247.832 100.916 247.429 100.009 247.33 99.4963C246.774 96.6177 248.353 92.5043 248.731 89.6063C249.081 86.9242 248.771 83.9764 249.425 81.3646C250.021 78.9878 251.837 78.6707 254.073 78.4168C260.191 77.7216 266.435 77.3517 272.581 76.8279C286.606 75.6326 301.077 73.8293 315.007 76.7833C320.037 77.8499 326.17 79.4992 330.663 82.1403C332.069 82.9657 333.486 83.9379 332.975 85.6483C332.445 87.4239 329.846 89.2995 328.558 90.4692C319.043 99.1125 309.853 107.929 303.169 119.019C294.645 133.162 289.753 148.436 286.883 164.642C286.266 168.128 285.693 169.953 282.108 170.956C278.26 172.034 274.545 172.735 270.555 173.062C261.535 173.804 252.487 173.819 243.471 174.539ZM246.526 80.8818C245.835 86.03 244.899 91.1669 244.807 96.3556C244.772 98.3153 244.587 99.2972 242.504 99.7343C240.049 100.249 237.552 100.633 235.086 101.168C223.181 103.749 211.502 106.92 199.856 110.488C188.537 113.957 177.404 117.86 165.831 120.43C160.853 121.535 155.028 122.28 150.494 124.728C145.616 127.362 146.258 131.68 145.82 136.423C145.235 142.759 143.357 148.895 142.697 155.229C142.381 158.256 142.093 161.301 142.141 164.347C142.181 166.943 142.553 169.814 140.809 171.999C137.31 167.318 135.651 161.431 134.961 155.694C134.626 152.905 134.759 150.093 134.663 147.292C134.586 145.036 134.636 141.448 133.168 139.564C129.976 135.47 125.824 151.877 125.429 153.629C124.766 156.578 124.218 159.551 123.557 162.5C123.263 163.808 122.887 168.56 121.137 169.033C117.509 170.015 118.306 159.816 118.248 158.263C118.133 155.128 118.055 151.99 118.129 148.853C118.182 146.589 118.62 144.131 118.36 141.866C117.722 136.303 114.596 142.164 113.717 144.234C111.496 149.461 110.492 155.056 108.501 160.367C108.17 161.251 107.391 164.225 106.158 164.28C104.786 164.341 104.797 161.27 104.719 160.372C104.263 155.171 102.726 150.006 103.19 144.75C103.658 139.444 105.517 133.988 108.148 129.373C113.71 119.614 123.753 114.011 133.374 108.907C144.383 103.066 156.007 98.4523 167.878 94.6934C182.156 90.1726 196.816 86.5148 211.564 83.9117C219.067 82.5876 226.686 81.6406 234.266 80.8813C236.93 80.6145 239.595 80.4586 242.225 79.9512C243.218 79.7593 246.799 78.8477 246.526 80.8818ZM254.195 64.2215C250.434 64.2512 246.591 62.4264 242.926 61.6723C238.563 60.7735 234.302 59.473 229.947 58.5346C221.418 56.6975 212.885 54.906 204.364 53.0284C200.665 52.2132 196.948 51.5037 193.263 50.6281C189.321 49.6913 185.062 48.6468 181.027 49.6559C174.911 51.1858 172.328 57.8811 170.082 63.1062C168.496 66.7968 167.253 70.9108 164.779 74.1223C163.899 75.2673 162.647 76.633 161.049 76.2621C158.083 75.5736 158.554 71.6449 158.932 69.4733C159.479 66.3218 160.255 63.2072 160.876 60.0701C161.126 58.804 163.065 50.5173 159.603 51.8002C157.035 52.7519 155.676 59.02 154.704 61.2588C153.982 62.9225 153.217 64.5755 152.406 66.1982C151.324 68.3626 148.238 75.5946 144.821 74.662C139.931 73.3271 144.621 60.4631 145.454 57.7518C145.912 56.2635 150.882 44.9767 146.687 45.8991C144.9 46.2926 143.159 49.6134 142.248 50.9898C140.633 53.4311 139.023 55.89 137.502 58.3915C135.938 60.9643 135.139 63.8926 133.587 66.428C132.771 67.7623 131.106 69.5405 129.479 68.3051C126.944 66.3808 128.447 59.6869 128.891 57.1556C129.717 52.4497 131.768 47.6254 134.584 43.7783C138.814 37.9976 146.796 36.1296 153.508 35.0066C162.172 33.5568 170.957 33.9534 179.657 34.8112C189.442 35.7762 199.078 36.8094 208.722 38.7825C218.443 40.7709 228.168 42.7435 237.738 45.3733C242.247 46.6122 246.82 47.7106 251.265 49.165C255.99 50.7107 260.601 52.6344 265.458 53.7482C263.75 58.0139 262.041 62.2797 260.332 66.546C258.697 64.9274 256.466 64.203 254.195 64.2215ZM337.93 75.9763C339.428 75.1565 341.083 74.7697 341.63 72.9577C342.113 71.3566 341.288 69.5425 340.893 68.0055C339.788 63.7023 339.498 59.2447 340.475 54.8907C341.409 56.3174 344.906 61.8052 347.032 58.4828C348.315 56.479 344.878 53.5963 343.875 52.1876C346.076 50.8282 349.22 47.1796 351.757 49.3799C353.397 50.8026 354.091 52.1722 356.3 52.8637C358.982 53.7035 361.507 53.5111 364.246 53.2793C366.163 53.1171 366.625 52.8611 367.374 54.3386C367.963 55.5001 368.267 56.9376 368.61 58.1848C369.287 60.6437 370.854 65.4886 368.998 67.7921C367.372 69.8098 361.063 68.0799 360.187 70.6845C359.709 72.1051 361.99 72.1559 362.861 72.8587C363.94 73.7288 364.833 75.1134 365.42 76.3503C365.854 77.265 366.514 78.7764 365.775 79.7116C364.754 81.0055 362.861 80.0241 362.037 79.0837C360.944 77.8345 360.589 76.1266 359.677 74.7661C358.003 72.2698 357.903 74.2557 357.448 76.0481C356.974 77.9104 355.855 77.7822 354.14 78.0212C351.131 78.4414 348.09 79.0339 345.161 79.8409C343.66 80.2544 342.205 80.7813 340.775 81.3969C339.853 81.793 338.256 82.9929 337.257 83.0042C335.404 83.0252 334.12 79.9251 333.164 78.6317C334.752 77.7447 336.335 76.8495 337.93 75.9763ZM437.408 265.806C432.782 260.249 428.775 254.212 424.21 248.606C419.708 243.077 414.5 238.243 409.447 233.235C407.063 230.872 404.778 228.279 402.146 226.185C400.182 224.622 398.671 224.598 396.309 225.29C389.598 227.257 382.765 229.625 376.413 232.56C370.499 235.293 365.112 238.802 358.699 240.327C352.152 241.883 345.345 242.382 338.635 241.997C331.753 241.601 325.262 240.168 318.717 238.062C312.518 236.068 306.055 234.326 300.754 230.372C295.196 226.228 290.902 220.268 286.924 214.661C284.909 211.823 282.91 208.843 281.553 205.626C280.375 202.835 279.606 199.54 277.492 197.265C276.974 198 276.329 198.63 276.065 199.494C275.946 199.886 276.652 199.874 276.58 200.186C276.443 200.773 275.661 201.372 275.207 201.692C273.575 202.841 273.566 201.927 273.994 204.076C274.243 205.328 273.771 208.155 271.73 207.231C272.481 208.132 271.287 209.268 270.897 210.01C270.629 209.701 270.295 209.594 269.896 209.687C270.643 211.175 270.202 211.214 269.478 212.396C269.346 212.612 268.878 213.742 268.945 213.646C268.206 214.7 267.352 214.965 266.921 216.278C266.566 217.356 266.657 218.541 266.262 219.617C265.785 218.957 265.308 218.297 264.83 217.637C264.928 218.156 265.123 218.924 265.349 219.395C265.492 219.69 266.103 220.377 266.095 220.538C266.061 221.138 265.313 220.994 265.099 221.512C264.699 222.483 265.278 222.626 265.059 223.573C264.809 224.661 264.138 224.226 263.818 225.153C263.758 225.329 264.229 226.022 264.155 226.401C264.049 226.938 263.563 227.238 263.392 227.715C262.955 228.929 263.114 229.817 262.507 230.981C262.272 231.433 261.93 231.734 261.765 232.247C261.62 232.698 261.932 233.659 261.652 234.063C260.3 236.012 260.49 232.655 260.592 231.822C261.453 224.831 264.215 217.616 266.743 211.082C267.999 207.836 269.222 204.488 270.796 201.378C271.43 200.126 272.161 198.834 273.209 197.876C274.534 196.664 276.413 196.179 277.613 194.826C277.424 195.039 278.914 193.628 278.675 194.092C278.888 193.678 278.516 193.116 278.648 192.715C278.813 192.217 279.124 192.112 279.471 191.676C280.094 190.893 280.834 190.504 279.855 189.506C281.307 189.185 282.001 188.714 282.292 187.158C282.503 186.019 282.076 186.094 282.822 185.335C283.571 184.573 283.951 185.168 284.423 183.848C284.987 182.268 285.362 180.12 285.701 178.467C285.996 177.024 285.279 174.902 286.495 173.883C288.034 172.593 289.412 173.139 289.136 170.544C288.867 168.014 289.652 166.482 290.442 164.088C292.017 159.309 292.627 154.264 294.008 149.428C296.956 139.108 302.165 129.804 307.765 120.719C312.941 112.325 320.176 105.174 327.162 98.2866C329.075 96.4002 330.967 94.4866 332.684 92.4186C334.164 90.6379 334.84 88.2134 336.262 86.523C337.126 85.4965 338.734 85.0573 339.941 84.513C341.952 83.6049 344.35 82.4204 346.621 82.604C345.718 85.6478 345.424 89.2046 348.087 91.487C351.317 94.2558 354.245 91.3793 357.207 89.8007C362.604 86.9232 370.324 89.5647 375.031 85.2517C376.152 84.2247 376.465 82.5835 377.629 81.6242C378.485 80.9208 379.701 80.7423 380.664 80.218C383.589 78.6251 385.009 75.709 383.87 72.4878C382.829 69.543 381.212 68.5216 384.812 67.0292C387.734 65.8185 388.845 63.9942 387.522 60.7463C386.261 57.6497 383.951 57.2931 381.765 55.2667C379.647 53.3039 382.08 51.0196 383.666 49.5462C385.712 47.6454 386.103 45.9324 383.731 43.9558C381.247 41.8862 377.702 41.9586 374.807 42.9821C371.533 44.1389 369.376 46.0622 367.991 49.1788C366.58 52.3517 363.083 51.4662 360.251 50.582C357.542 49.7365 356.837 47.9122 355.059 45.9478C353.081 43.7629 349.049 45.6313 346.716 46.6296C340.97 49.087 335.26 52.9653 335.032 59.8352C334.896 63.9316 336.627 67.4135 337.527 71.2586C338.351 74.7748 332.705 74.4978 331.728 77.8991C321.299 72.3749 309.685 70.6845 298.027 70.3085C285.637 69.9083 273.068 69.5877 260.784 71.5433C263.635 66.5721 265.141 61.1208 267.622 56.0137C268.336 54.5433 268.644 54.669 270.22 55.1133C273.247 55.9665 276.252 56.9212 279.273 57.8C290.311 61.0105 301.131 64.8787 311.803 69.1152C312.841 69.5271 315.156 70.6707 316.065 69.4271C317.114 67.9932 314.688 66.2253 313.706 65.504C309.408 62.3495 304.083 60.4349 299.27 58.2217C288.748 53.3844 277.097 51.0883 266.118 47.4956C242.416 39.7382 217.896 33.8467 193.265 29.9554C187.254 29.0058 181.179 28.8668 175.142 28.1619C169.795 27.5376 164.438 27.5519 159.091 28.1968C149.215 29.3885 137.766 31.9598 132.189 41.0054C127.154 49.1727 123.792 58.3551 125.077 68.043C125.463 70.9528 126.695 74.3988 130.283 73.6488C132.772 73.1286 134.094 71.0123 135.25 68.9469C136.996 65.8267 138.721 62.7065 140.613 59.67C141.315 64.223 138.764 68.7002 139.165 73.3384C139.438 76.4858 141.176 81.4585 145.259 80.5674C150.857 79.3464 153.16 70.5968 155.851 66.3993C155.988 69.6323 154.855 72.8187 155.202 76.0589C155.544 79.2597 158.043 82.2814 161.553 81.8427C164.864 81.4292 167.016 77.8796 168.423 75.2073C170.38 71.4884 171.785 67.5012 173.697 63.7577C175.488 60.2486 177.61 56.0711 181.887 55.4119C185.704 54.8229 190.078 56.186 193.849 56.7483C204.307 58.3079 214.555 60.9633 224.899 63.1087C235.99 65.4086 247.343 66.8056 258.092 70.5168C254.313 75.6644 244.422 74.5522 238.792 75.1047C230.283 75.9399 221.665 76.5684 213.204 77.8006C204.849 79.0175 196.667 81.1779 188.377 82.7462C180.129 84.3063 171.897 85.8689 163.916 88.5294C149.1 93.4693 134.037 99.721 120.982 108.34C114.908 112.351 109.513 116.935 105.761 123.266C101.985 129.636 100.17 136.839 99.4784 144.167C99.0477 148.729 99.7793 152.678 100.663 157.119C101.303 160.334 101.51 165.717 104.086 168.071C109.003 172.565 113.086 154.338 113.994 152.137C114.647 155.744 113.579 176.068 121.468 174.415C124.99 173.678 125.788 168.842 126.372 165.929C127.438 160.619 128.392 155.202 130.214 150.087C131.383 156.978 131.871 164.157 134.39 170.739C136.064 175.11 140.839 182.866 144.167 175.383C146.664 169.771 145.808 163.33 146.107 157.372C146.439 150.769 148.333 144.4 149.004 137.863C149.264 135.33 149.028 132.475 151.572 131.093C153.755 129.907 156.948 129.521 159.332 128.859C166.394 126.897 173.501 125.093 180.529 123.012C187.56 120.929 194.494 118.496 201.431 116.121C208.066 113.85 214.84 112.559 221.556 110.614C225.374 109.508 229.146 108.351 233.017 107.428C234.819 106.998 236.642 106.664 238.44 106.219C239.772 105.89 241.528 104.646 242.898 104.669C244.308 104.692 244.838 105.886 246.454 105.98C248.195 106.08 249.965 105.696 251.696 105.563C255.912 105.24 260.395 104.716 264.602 105.301C262.074 108.302 258.658 110.377 255.665 112.863C252.213 115.73 248.873 118.826 245.924 122.212C239.991 129.025 234.384 136.227 229.174 143.607C224.036 150.889 219.898 158.856 216.301 166.997C214.509 171.053 212.769 175.199 211.53 179.462C211.022 181.214 210.607 182.972 209.688 184.565C208.846 186.026 207.659 187.285 208.655 189.05C209.34 188.62 209.956 188.087 210.576 187.571C209.86 192.62 208.314 197.504 207.519 202.537C206.736 207.496 206.768 212.596 206.818 217.604C206.925 228.092 207.704 238.343 209.83 248.63C211.981 259.033 214.743 269.356 218.226 279.392C221.579 289.054 224.944 299.187 229.625 308.293C234.623 318.02 240.57 328.247 247.806 336.48C243.079 338.417 237.064 338.055 232.059 338.835C226.828 339.651 222.302 341.191 217.844 344.087C213.333 347.019 210.884 350.792 210.261 356.137C209.818 359.941 208.502 365.208 213.489 366.207C217.077 366.926 221.087 365.745 224.682 365.453C230.969 364.944 237.266 364.625 243.568 364.35C249.853 364.076 256.14 363.834 262.427 363.639C265.384 363.547 268.343 363.501 271.299 363.395C272.624 363.348 273.427 363.327 274.615 363.71C275.554 364.013 275.486 364.643 276.532 363.865C278.218 362.609 277.871 358.651 277.824 356.911C277.752 354.226 277.498 351.509 276.974 348.874C276.664 347.308 272.892 337.216 275.825 336.791C272.418 333.045 271.057 327.696 269.527 323C267.61 317.118 265.926 311.252 264.605 305.202C261.783 292.279 260.535 279.214 260.535 265.991C273.618 274.06 287.461 278.431 302.87 278.919C318.191 279.403 335.022 278.144 349.57 273.045C356.306 270.683 362.341 267.581 368.117 263.402C370.187 261.905 372.405 258.513 375.122 258.571C378.365 258.64 381.997 259.869 385.217 260.394C391.375 261.398 399.413 261.965 404.627 265.777C407.46 267.848 409.489 270.746 412.017 273.131C413.94 274.946 416.482 275.932 418.39 277.747C420.449 279.705 419.631 282.264 423.046 282.422C425.964 282.557 429.163 281.382 431.68 280.003C436.702 277.252 442.049 271.379 437.408 265.806Z" fill="#2F2F2F"/>
<path fill-rule="evenodd" clip-rule="evenodd" d="M389.145 134.94C396.493 140.163 404.922 143.732 412.601 148.435C414.523 149.613 420.512 152.057 420.454 154.241C420.42 155.518 418.62 157.119 417.832 158.004C416.482 159.52 415.212 161.052 413.967 162.656C408.264 170 402.894 177.413 396.714 184.388C395.784 185.437 392.981 190.447 392.076 187.959C391.666 186.83 392.004 185.563 390.935 184.511C390.385 183.969 388.259 183.671 388.878 182.509C389.291 182.694 389.704 182.881 390.117 183.066C389.796 182.137 389.82 181.12 389.339 180.242C389.04 179.697 388.456 179.439 388.253 178.825C387.973 177.976 388.448 176.99 388.369 176.115C388.29 175.243 387.839 174.419 387.569 173.596C385.97 168.718 385.396 163.801 384.577 158.768C383.767 153.788 382.506 148.964 382.01 143.929C381.487 138.611 380.845 133.303 379.99 128.027C381.517 128.241 382.691 129.902 383.771 130.841C385.469 132.316 387.313 133.638 389.145 134.94ZM383.384 186.431C383.034 186.155 382.759 185.817 382.561 185.415C386.163 183.63 383.99 186.676 383.384 186.431ZM381.194 182.623C379.624 183.056 378.496 183.144 377.286 182.497C377.171 182.436 377.303 181.964 377.096 181.867C376.915 181.783 376.639 181.887 376.484 181.808C375.957 181.54 375.034 182.128 374.944 181.1C376.948 180.487 378.918 179.355 381.034 179.164C383.973 178.899 383.838 181.894 381.194 182.623ZM374.316 176.703C372.174 177.204 370.409 178.375 368.133 178.069C365.997 177.783 364.14 176.674 362.455 175.397C366.671 174.202 371.092 173.987 375.304 172.832C376.676 172.456 378.478 171.464 379.956 171.864C381.598 172.308 381.702 173.847 382.194 175.247C379.566 175.72 376.918 176.094 374.316 176.703ZM360.919 170.76C358.861 171.252 356.757 172.328 355.036 170.471C354.759 170.172 354.516 170.471 354.548 169.548C354.583 168.575 355.466 167.948 356.225 167.605C358.01 166.799 360.513 167.32 362.408 167.202C365.433 167.013 368.511 166.384 371.503 165.9C373.574 165.565 375.713 164.821 377.83 164.968C379.465 165.081 381.437 166.475 379.055 167.492C376.885 168.419 373.633 168.276 371.283 168.678C367.809 169.271 364.347 169.94 360.919 170.76ZM358.908 161.072C359.042 161.208 359.175 161.344 359.308 161.48C359.286 161.475 360.097 160.818 360.312 160.799C361.355 160.708 362.405 160.78 363.45 160.721C365.857 160.585 368.284 160.165 370.648 159.703C372.575 159.326 374.537 158.677 376.519 158.84C378.236 158.981 378.416 159.332 378.529 160.99C374.147 160.99 369.634 160.898 365.328 161.826C362.524 162.43 359.435 164.228 358.031 160.986C358.323 161.015 358.616 161.043 358.908 161.072ZM361.648 154.055C362.734 154.883 365.696 153.506 366.998 153.368C368.412 153.218 369.743 153.063 371.113 152.71C372.328 152.397 376.348 150.835 377.28 152.329C378.709 154.619 372.923 155.039 372.006 155.152C368.159 155.628 364.168 156.05 360.425 157.059C360.832 156.058 361.24 155.056 361.648 154.055ZM366.924 146.278C367.205 147.336 375.905 143.436 376.063 146.27C376.185 148.445 367.456 149.529 365.887 149.338C366.254 148.336 367.232 147.44 366.924 146.278ZM369.845 139.625C370.03 137.491 370.316 137.503 372.027 137.302C373.332 137.148 375.125 136.383 374.786 138.71C374.495 140.703 369.659 141.779 369.845 139.625ZM372.955 132.28C373.366 131.134 374.293 132.677 374.312 133.26C374.364 134.811 373.189 134.475 372.058 134.475C372.373 133.751 372.672 133.018 372.955 132.28ZM387.273 123.678C387.042 123.399 385.747 123.293 385.378 123.158C384.472 122.826 384.6 122.117 383.441 122.816C383.383 122.758 383.493 122.232 383.43 122.208C383.398 122.196 382.586 121.889 382.322 121.72C381.684 121.311 381.11 120.912 380.525 120.399C379.902 119.855 379.279 119.065 378.568 118.631C378.268 118.449 378.023 118.19 377.661 118.134C376.723 117.989 376.992 118.643 376.172 118.773C375.667 118.853 375.3 118.263 374.639 118.517C374.069 118.737 373.737 119.537 373.483 120.014C372.559 121.749 371.846 123.615 370.941 125.368C366.313 134.332 361.053 142.956 356.571 152.004C354.412 156.363 352.159 160.751 350.64 165.384C349.544 168.724 347.07 173.605 349.198 176.943C350.746 179.37 353.845 180.418 356.318 181.591C360.039 183.356 363.469 185.662 367.23 187.373C371.716 189.413 376.072 191.548 380.444 193.826C382.309 194.798 383.991 196.197 385.85 197.117C386.987 197.68 388.742 196.72 389.112 198.01C390.537 196.283 392.843 197.435 394.491 196.219C395.461 195.504 396.169 194.095 396.978 193.214C398.191 191.893 399.508 190.668 400.745 189.371C405.657 184.218 410.193 178.85 414.662 173.315C418.931 168.03 423.918 163.036 427.524 157.25C428.956 154.953 429.215 152.545 428.27 150.007C427.58 148.156 425.918 145.361 423.544 146.587C424.444 145.091 420.971 143.493 419.917 143.201C419.902 143.197 419.694 144.346 419.4 144.317C419.505 144.328 418.517 141.771 418.084 141.443C416.796 140.468 415.229 139.33 413.824 138.527C412.535 137.791 411.175 137.426 409.926 136.603C408.413 135.604 407.023 134.42 405.504 133.429C404.037 132.471 402.402 131.339 400.781 130.681C399.375 130.11 398.113 129.998 396.848 129.063C395.284 127.905 393.919 127.119 392.114 126.322C390.553 125.632 388.389 125.029 387.273 123.678Z" fill="#2F2F2F"/>
<path fill-rule="evenodd" clip-rule="evenodd" d="M174.167 262.318C174.454 261.643 174.74 260.969 175.028 260.294C175.382 261.47 175.482 262.055 174.167 262.318ZM174.549 265.434C173.927 265.545 174.172 263.593 174.172 263.253C175.246 263.861 174.357 264.591 174.549 265.434ZM173.58 259.802C174.11 259.489 174.64 259.176 175.17 258.863C174.432 260.231 174.721 259.376 175.026 260.29C174.469 260.45 173.928 260.264 173.58 259.802ZM170.438 270.5C168.451 277.715 162.139 283.405 155.472 286.352C151.641 288.045 147.875 288.469 143.738 288.28C142.143 288.207 140.265 287.688 138.73 287.785C137.547 287.859 137.601 287.91 136.622 288.912C136.188 288.114 136.502 287.553 135.633 287.089C134.549 286.509 134.099 287.184 133.561 287.987C132.857 287.257 132.569 286.876 131.657 286.442C131.685 286.456 130.783 286.422 130.82 286.433C130.657 286.383 129.677 285.752 129.369 285.637C128.109 285.164 126.652 284.969 125.489 284.291C124.472 283.698 123.634 282.034 122.471 283.313C122.47 281.176 119.594 280.29 118.246 279.172C116.14 277.423 114.465 274.834 113.415 272.33C112.296 269.66 111.922 267.1 111.398 264.348C111.032 262.426 108.635 259.646 110.074 257.706C110.417 258.519 110.256 259.353 110.826 260.09C111.338 259.102 111.62 257.996 111.852 256.914C111.966 256.384 112.625 254.828 112.551 254.367C112.398 253.422 111.229 253.37 111.877 252.212C113.222 253.675 114.306 251.105 113.291 250.081C112.789 250.647 112.605 251.289 112.374 251.99C111.052 249.32 114.71 250.18 113.91 247.77C115.245 247.513 116.013 247.177 116.52 245.857C117.085 244.388 116.67 244.068 117.951 243.097C118.392 242.764 119.639 242.284 119.867 241.735C120.309 240.674 119.185 240.36 120.169 239.366C120.501 239.95 121.796 241.104 122.506 240.006C122.648 239.786 122.051 239.631 122.485 239.126C123.127 238.379 123.846 237.647 124.933 237.804C124.072 235.652 129.569 235.481 130.977 234.973C132.388 234.465 133.585 234.131 135.081 234.013C136.576 233.895 136.65 233.457 137.916 232.556C138.023 233.845 138.332 233.561 139.248 233.789C139.468 233.411 139.693 233.369 139.924 233.661C140.154 233.88 140.434 233.983 140.766 233.97C141.268 233.996 141.838 233.931 142.365 233.942C143.601 233.966 144.876 233.863 146.088 233.889C146.401 233.836 146.693 233.728 146.967 233.562C147.082 233.777 147.196 233.993 147.31 234.209C147.953 234.29 148.002 235.095 148.792 234.215C149.026 235.334 149.698 234.752 150.407 235.055C151.054 235.333 151.157 235.776 151.755 236.086C152.147 236.404 152.568 236.446 153.019 236.213C153.447 236.53 153.881 236.839 154.322 237.138C155.135 237.597 156.093 237.878 156.949 238.241C157.518 238.476 158.085 238.72 158.646 238.974C158.663 239.652 158.967 239.892 159.557 239.692C160.091 240.139 160.241 240.121 160.759 240.882C161.932 242.607 162.973 243.946 164.455 245.487C170.895 252.187 172.873 261.66 170.438 270.5ZM172.414 242.01C169.507 238.114 165.391 233.653 161.693 231.192C159.819 229.945 157.188 227.705 154.896 227.046C154.352 226.889 153.79 226.879 153.255 226.715C152.843 226.588 152.618 226.164 152.148 226.088C151.818 226.034 151.782 226.772 151.432 226.704C150.701 226.561 150.238 225.835 149.721 225.381C148.612 227.293 148.011 224.078 146.382 226.24C144.444 223.199 139.892 223.864 136.797 224.017C135.879 224.062 135.448 224.389 134.634 224.631C133.877 224.857 133.802 224.799 132.975 224.792C130.916 224.776 129.087 225.036 127.184 225.941C123.986 227.461 121.05 229.829 118.012 231.661C114.617 233.709 111.557 236.315 108.96 239.309C99.5701 250.137 97.0594 265.942 104.546 278.494C116.438 298.431 147.113 300.561 164.495 287.034C177.924 276.582 183.035 256.238 172.414 242.01Z" fill="#2F2F2F"/>
<path fill-rule="evenodd" clip-rule="evenodd" d="M319.603 185.907C319.27 186.704 316.153 186.436 316.085 185.497C315.983 184.093 320.183 184.523 319.603 185.907ZM322.914 185.386C324.68 185.53 327.582 186.73 329.284 186.005C331.882 184.898 329.154 183.199 327.76 182.691C326.342 182.174 324.23 182.449 323.501 180.965C322.952 179.849 324.308 176.734 322.626 177.235C320.862 177.76 321.375 182.222 318.606 180.718C317.285 180.001 317.824 175.629 315.612 177.862C315.006 178.473 314.953 179.595 314.151 180.051C313.333 180.516 312.307 180.031 311.443 180.072C309.156 180.179 308.427 182.32 310.745 183.169C311.602 183.483 314.835 183.867 312.877 185.27C311.643 186.153 308.901 184.299 307.842 185.837C306.385 187.95 310.287 187.998 311.335 188.63C313.111 189.7 311.644 192.2 311.785 193.98C312.002 196.7 313.581 196.131 314.155 193.83C314.642 191.876 314.039 189.065 316.981 189.841C321.773 191.105 314.317 197.192 317.826 198.75C320.064 199.743 320.381 194.374 320.555 193.45C321.198 190.038 323.114 190.834 326.016 190.939C329.406 191.061 330.224 188.552 326.634 187.833C325.489 187.604 323.913 187.893 322.919 187.163C322.33 186.732 321.521 185.273 322.914 185.386Z" fill="#2F2F2F"/>
<path fill-rule="evenodd" clip-rule="evenodd" d="M197.752 296.863C195.009 295.88 190.419 296.092 189.74 299.638C189.456 301.122 190.01 302.692 191.034 303.77C192.222 305.02 194.114 305.136 194.013 302.959C193.942 301.452 192.509 300.143 195.029 299.84C196.597 299.651 198.916 300.824 198.994 302.557C199.17 306.463 192.413 306.77 189.922 306.094C184.98 304.754 186.323 299.574 189.717 297.21C190.594 296.599 193.109 295.658 193.224 294.389C193.377 292.707 191.297 293.05 190.278 293.272C182.786 294.904 181.153 307.463 188.982 309.83C192.537 310.905 197.543 309.795 199.686 306.574C201.694 303.553 201.722 298.285 197.752 296.863Z" fill="#2F2F2F"/>
<path fill-rule="evenodd" clip-rule="evenodd" d="M98.4155 207.958C96.0735 209.086 93.7315 210.214 91.39 211.342C90.6159 209.685 89.308 205.156 87.3444 204.578C84.1657 203.642 86.1898 208.578 86.7384 209.707C87.189 210.634 88.2344 212.07 87.9806 213.176C87.6402 214.664 85.5412 215.192 84.4425 215.96C81.7237 217.861 81.7452 221.854 85.6827 220.162C87.9109 219.204 90.6697 216.548 92.3775 219.564C93.166 220.955 95.0343 228.728 96.9856 223.645C98.193 220.497 92.3816 217.227 95.2465 214.565C96.1689 213.708 97.2486 213.636 98.1699 213.143C100.395 211.954 99.1405 209.755 98.4155 207.958Z" fill="#2F2F2F"/>
<path fill-rule="evenodd" clip-rule="evenodd" d="M441.761 95.3295C440.365 94.8186 438.638 93.8207 437.086 94.1609C435.436 94.522 434.772 96.175 433.573 97.1687C430.313 99.8708 428.414 95.8436 426.623 93.6366C424.931 91.5527 422.867 91.0468 420.479 92.3273C419.528 92.8378 415.522 95.1766 416.221 96.6752C416.723 97.7535 418.702 96.7855 419.378 96.55C420.843 96.0395 422.205 95.5927 423.704 96.3371C426.516 97.7325 427.246 101.559 430.648 102.156C434.166 102.773 434.281 99.4229 436.792 98.1619C438.475 97.317 439.648 98.8129 441.271 98.5149C442.819 98.2312 443.534 95.978 441.761 95.3295Z" fill="#2F2F2F"/>
<path fill-rule="evenodd" clip-rule="evenodd" d="M413.358 108.831C414.602 109.101 415.414 106.686 416.193 106.074C417.485 105.058 419.725 104.854 421.04 105.876C423.609 107.87 422.724 112.177 426.382 113.299C429.652 114.303 431.192 109.994 433.944 108.921C435.544 108.297 437.3 107.889 436.676 105.65C436.245 104.103 434.974 103.705 433.593 104.3C431.219 105.321 430.413 109.48 427.599 109.554C424.688 109.631 424.372 105.431 423.122 103.601C421.216 100.813 417.299 100.14 415.072 102.806C414.4 103.61 410.988 108.317 413.358 108.831Z" fill="#2F2F2F"/>
<path fill-rule="evenodd" clip-rule="evenodd" d="M355.804 61.2172C357.535 62.4023 360.984 62.3613 362.579 60.8915C364.201 59.396 362.035 59.1662 360.714 59.2118C359.697 59.2472 357.794 59.7515 358.373 57.9944C358.887 56.4354 361.714 57.229 361.95 55.5176C359.822 55.1359 357.479 55.2734 355.906 56.9463C354.768 58.1555 354.184 60.1076 355.804 61.2172Z" fill="#2F2F2F"/>
</svg>
