<?xml version="1.0" encoding="UTF-8"?>
<svg id="_레이어_2" data-name="레이어 2" xmlns="http://www.w3.org/2000/svg" viewBox="0 0 669.28 99.54">
  <defs>
    <style>
      .cls-1 {
        fill: #2f2f2f;
      }
    </style>
  </defs>
  <g id="_레이어_1-2" data-name="레이어 1">
    <g>
      <path class="cls-1" d="M359.73,99.24l-27.18-71.87h15.86l20.97,59.05,20.83-59.05h16l-27.18,71.87h-19.31Z"/>
      <path class="cls-1" d="M122.87,99.09c-7.44,0-13.66-1.52-18.67-4.57-5.02-3.04-8.8-7.28-11.35-12.7-2.55-5.42-3.83-11.67-3.83-18.74s1.32-13.48,3.96-18.94c2.64-5.46,6.49-9.76,11.55-12.9,5.06-3.13,11.17-4.7,18.34-4.7,5.46,0,10.21,1.01,14.24,3.02,4.03,2.01,7.37,4.72,10.01,8.13,2.64,3.41,4.59,7.19,5.84,11.35,1.25,4.17,1.79,8.49,1.61,12.97,0,.99-.05,1.93-.14,2.82-.09.9-.18,1.84-.27,2.82h-51.19c.27,3.58,1.19,6.85,2.75,9.81,1.57,2.96,3.78,5.31,6.65,7.05,2.87,1.75,6.4,2.62,10.61,2.62,2.33,0,4.59-.29,6.79-.87,2.19-.58,4.16-1.52,5.91-2.82,1.75-1.3,2.98-2.98,3.69-5.04h13.97c-1.17,4.75-3.25,8.67-6.25,11.76-3,3.09-6.63,5.35-10.88,6.79-4.26,1.43-8.71,2.15-13.37,2.15ZM103.25,56.63h37.62c-.09-3.49-.9-6.6-2.42-9.34-1.52-2.73-3.63-4.88-6.31-6.45-2.69-1.57-5.91-2.35-9.67-2.35-4.12,0-7.55.85-10.28,2.55-2.73,1.7-4.84,3.92-6.31,6.65-1.48,2.73-2.35,5.71-2.62,8.93Z"/>
      <path class="cls-1" d="M191.56,99.24c-3.32,0-6.64-.32-9.96-.94-3.32-.63-6.42-1.75-9.29-3.37-2.87-1.62-5.3-3.79-7.27-6.53-1.98-2.74-3.23-5.85-3.77-9.89h14.14c.72,2.15,2,3.63,3.84,4.97,1.84,1.35,3.9,2.33,6.19,2.96,2.29.63,4.55.94,6.8.94,1.35,0,2.85-.09,4.51-.27,1.66-.18,3.25-.58,4.78-1.21,1.53-.63,2.78-1.55,3.77-2.76.99-1.21,1.48-2.85,1.48-4.91,0-1.62-.43-2.96-1.28-4.04-.85-1.08-2.02-1.95-3.5-2.63s-3.25-1.19-5.32-1.55c-4.04-.9-8.37-1.77-12.99-2.63-4.62-.85-8.68-2.36-12.18-4.51-1.26-.81-2.38-1.73-3.37-2.76-.99-1.03-1.84-2.22-2.56-3.57-.72-1.35-1.26-2.78-1.62-4.31-.36-1.53-.54-3.18-.54-4.98,0-3.68.74-6.82,2.22-9.42,1.48-2.6,3.52-4.73,6.13-6.4,2.6-1.66,5.56-2.89,8.89-3.7,3.32-.81,6.82-1.21,10.5-1.21,4.76,0,9.06.76,12.92,2.29,3.86,1.53,7.05,3.77,9.56,6.73,2.51,2.96,3.99,6.69,4.44,11.17h-13.06c-.54-2.42-2.09-4.38-4.64-5.86s-5.77-2.22-9.63-2.22c-1.35,0-2.81.09-4.38.27-1.57.18-3.07.58-4.51,1.21-1.44.63-2.6,1.5-3.5,2.63-.9,1.12-1.35,2.58-1.35,4.38s.43,3.14,1.28,4.31c.85,1.17,2.11,2.11,3.77,2.83,1.66.72,3.57,1.3,5.72,1.75,3.05.72,6.35,1.39,9.9,2.02,3.54.63,6.44,1.3,8.68,2.02,2.96.81,5.5,1.97,7.61,3.5,2.11,1.53,3.72,3.46,4.85,5.79,1.12,2.34,1.68,5.16,1.68,8.48,0,4.31-.85,7.83-2.56,10.57-1.71,2.74-3.97,4.91-6.8,6.53-2.83,1.62-5.97,2.74-9.42,3.37-3.46.63-6.85.94-10.17.94Z"/>
      <path class="cls-1" d="M262.47,99.1c-7.35,0-13.57-1.5-18.68-4.5-5.11-3-8.98-7.23-11.62-12.7-2.64-5.46-3.96-11.78-3.96-18.95s1.34-13.59,4.03-19.01c2.69-5.42,6.59-9.68,11.69-12.77,5.11-3.09,11.33-4.64,18.68-4.64s13.57,1.55,18.68,4.64c5.11,3.09,8.96,7.37,11.56,12.83,2.6,5.47,3.9,11.83,3.9,19.08s-1.32,13.35-3.96,18.81c-2.64,5.47-6.5,9.7-11.56,12.7-5.06,3-11.31,4.5-18.75,4.5ZM262.47,86.74c4.84,0,8.76-1.08,11.76-3.23,3-2.15,5.22-5.04,6.65-8.67,1.43-3.63,2.15-7.59,2.15-11.89s-.72-8.24-2.15-11.83c-1.43-3.58-3.65-6.47-6.65-8.67-3-2.19-6.92-3.29-11.76-3.29s-8.65,1.1-11.69,3.29c-3.05,2.2-5.26,5.09-6.65,8.67-1.39,3.58-2.08,7.53-2.08,11.83s.69,8.38,2.08,11.96c1.39,3.58,3.61,6.45,6.65,8.6,3.04,2.15,6.94,3.23,11.69,3.23Z"/>
      <path class="cls-1" d="M470.83,99.36c-3.33,0-6.65-.32-9.98-.94-3.33-.63-6.43-1.75-9.31-3.37-2.88-1.62-5.31-3.8-7.28-6.54-1.98-2.74-3.24-6.14-3.78-10.18h14.16c.72,2.16,2,3.91,3.84,5.26,1.84,1.35,3.91,2.34,6.2,2.97,2.29.63,4.56.94,6.81.94,1.35,0,2.85-.09,4.52-.27,1.66-.18,3.26-.58,4.79-1.21,1.53-.63,2.79-1.55,3.78-2.76.99-1.21,1.48-2.85,1.48-4.92,0-1.62-.43-2.97-1.28-4.05-.86-1.08-2.02-1.96-3.51-2.63-1.48-.67-3.26-1.19-5.33-1.55-4.05-.9-8.38-1.77-13.01-2.63-4.63-.85-8.7-2.36-12.2-4.52-1.26-.81-2.38-1.73-3.37-2.76-.99-1.03-1.84-2.22-2.56-3.57-.72-1.35-1.26-2.79-1.62-4.32-.36-1.53-.54-3.19-.54-4.99,0-3.68.74-6.83,2.22-9.44,1.48-2.61,3.53-4.74,6.14-6.41,2.61-1.66,5.57-2.9,8.9-3.71,3.33-.81,6.83-1.21,10.52-1.21,4.76,0,9.08.76,12.95,2.29,3.86,1.53,7.06,3.78,9.57,6.74,2.52,2.97,4,6.7,4.45,11.19h-13.08c-.54-2.43-2.09-4.38-4.65-5.87-2.56-1.48-5.78-2.22-9.64-2.22-1.35,0-2.81.09-4.38.27-1.57.18-3.08.59-4.52,1.21-1.44.63-2.61,1.51-3.51,2.63-.9,1.13-1.35,2.59-1.35,4.38s.43,3.15,1.28,4.32c.85,1.17,2.11,2.11,3.78,2.83,1.66.72,3.57,1.3,5.73,1.75,3.05.72,6.36,1.39,9.91,2.02,3.55.63,6.45,1.3,8.7,2.02,2.97.81,5.51,1.98,7.62,3.51,2.11,1.53,3.73,3.46,4.85,5.8,1.12,2.34,1.69,5.17,1.69,8.5,0,4.32-.86,7.85-2.56,10.59-1.71,2.74-3.98,4.92-6.81,6.54-2.83,1.62-5.98,2.74-9.44,3.37-3.46.63-6.86.94-10.18.94Z"/>
      <path class="cls-1" d="M539.39,99.54c-9.98,0-17.6-2.63-22.86-7.89-5.26-5.26-7.89-13.28-7.89-24.07V27.36h13.89v39.41c0,4.23.61,7.87,1.82,10.92,1.21,3.06,3.08,5.39,5.6,7.01,2.52,1.62,5.71,2.43,9.57,2.43s7.3-.83,9.78-2.5c2.47-1.66,4.27-4.02,5.39-7.08,1.12-3.05,1.69-6.65,1.69-10.79V27.36h13.89v40.22c0,10.97-2.68,19.04-8.02,24.21-5.35,5.17-12.97,7.75-22.86,7.75Z"/>
      <path class="cls-1" d="M604.87,99.13c-3.23,0-6.34-.43-9.34-1.28-3-.85-5.67-2.15-8-3.9-2.33-1.75-4.19-3.94-5.58-6.59-1.39-2.64-2.08-5.76-2.08-9.34,0-4.3.83-7.86,2.49-10.69,1.66-2.82,3.88-5.02,6.65-6.59,2.78-1.57,5.98-2.69,9.61-3.36s7.41-1.01,11.36-1.01h17.34c0-3.49-.54-6.56-1.61-9.21-1.08-2.64-2.76-4.7-5.04-6.18s-5.31-2.22-9.07-2.22c-2.24,0-4.37.25-6.39.74-2.02.49-3.74,1.28-5.18,2.35-1.43,1.08-2.42,2.51-2.96,4.3h-14.52c.54-3.4,1.75-6.34,3.63-8.8,1.88-2.46,4.21-4.5,6.99-6.12,2.78-1.61,5.76-2.8,8.94-3.56,3.18-.76,6.43-1.14,9.75-1.14,10.22,0,17.59,2.98,22.11,8.94,4.52,5.96,6.79,14.14,6.79,24.53v39.12h-12.47l-.03-9.81c-2.06,2.78-4.5,4.89-7.33,6.32-2.82,1.43-5.62,2.38-8.4,2.82-2.78.45-5.33.67-7.66.67ZM607.02,87.43c4.03,0,7.57-.69,10.62-2.08,3.04-1.39,5.42-3.4,7.12-6.05,1.7-2.64,2.55-5.76,2.55-9.34v-2.96h-12.64c-2.6,0-5.13.07-7.59.2-2.47.13-4.7.49-6.72,1.08-2.02.58-3.63,1.55-4.84,2.89-1.21,1.34-1.81,3.27-1.81,5.78s.63,4.39,1.88,5.92c1.25,1.52,2.91,2.67,4.97,3.43,2.06.76,4.21,1.14,6.45,1.14Z"/>
      <path class="cls-1" d="M308.76,99.24V0h14.4v99.24h-14.4Z"/>
      <path class="cls-1" d="M415.65,99.24V27.36h14.4v71.87h-14.4Z"/>
      <path class="cls-1" d="M654.88,99.15V.3h14.4v98.85h-14.4Z"/>
      <path class="cls-1" d="M0,94.88V.14h37.37c29.83,0,44.74,8.71,44.74,26.14,0,6.9-2.52,12.52-7.54,16.84-5.03,4.33-11.46,6.49-19.3,6.49v1.23c11.69,0,19.83,7.72,24.39,23.16,2.34,8.19,4.71,14.01,7.11,17.46,2.4,3.45,5.35,6.49,9.67,6.49v1.37h-8.88c-14.62,0-24.8-2.34-30.53-8.66-4.56-4.91-7.66-11.4-9.3-19.47-.7-3.39-1.46-6.49-2.28-9.3-1.87-6.32-5.67-9.47-11.4-9.47h-7.72v45.97H0v-3.51ZM26.32,3.65v45.27c11.69,0,19.53-1.69,23.51-5.09,3.97-3.39,5.96-9.06,5.96-17.02s-2.05-13.8-6.14-17.54c-4.1-3.74-11.87-5.61-23.33-5.61Z"/>
      <path class="cls-1" d="M421.81,13.56c-1.96,0-3.55-.6-4.76-1.82-1.21-1.21-1.82-2.76-1.82-4.66s.62-3.45,1.86-4.66c1.24-1.21,2.81-1.82,4.71-1.82,1.77,0,3.32.61,4.66,1.82,1.34,1.21,2.01,2.76,2.01,4.66s-.64,3.45-1.91,4.66c-1.28,1.21-2.86,1.82-4.76,1.82Z"/>
    </g>
  </g>
</svg>